<?xml version="1.0" encoding="utf-8"?>
<!-- Generator: Adobe Illustrator 25.0.1, SVG Export Plug-In . SVG Version: 6.00 Build 0)  -->
<svg version="1.1" id="Layer_1" xmlns="http://www.w3.org/2000/svg" xmlns:xlink="http://www.w3.org/1999/xlink" x="0px" y="0px"
	 viewBox="0 0 256 256" style="enable-background:new 0 0 256 256;" xml:space="preserve">
<style type="text/css">
	.st0{fill-rule:evenodd;clip-rule:evenodd;fill:#FFFFFF;}
</style>
<path class="st0" d="M212.1,196.6L183,97.8c-0.9-2.6-2.3-5-4.1-7L151,60.5c-1.8-1.9-4.7-2.2-6.9-0.8V42.7c0-6.5-5.3-11.8-11.8-11.8
	h-28.4v-1.8c0-3.5-2.8-6.3-6.3-6.3H68.8c-3.5,0-6.3,2.8-6.3,6.3v18.3c0,3.5,2.8,6.3,6.3,6.3H71v19.9c0,6.5,5.3,11.8,11.8,11.8h3.7
	c-24.7,17.8-42.9,60.6-42.9,86.8c0,33.7,28.6,61,64,61c35.3,0,64-27.3,64-61c0-26.2-16.5-69.1-40.4-86.8h1.2c3.6,0,6.8-1.6,9-4.2
	l20.6,21.6l0.1,0l28.1,83.8l-5.3,11.5l2.8,8.3c1,3.1,4.6,4.6,7.5,3.1l14.4-6.3C211.8,201.9,213,199.2,212.1,196.6z"/>
</svg>
