<svg xmlns="http://www.w3.org/2000/svg" viewBox="0 0 354.331 66"><path d="M4 62V4h336.08c5.11 0 8.257 3.324 9.5 6.435 1.24 3.109 1.246 7.683-2.457 11.198l-31.287 29.708A38.637 38.637 0 0 1 289.124 62H4Z" style="fill:#f7941d;fill-rule:evenodd"/><path d="M340.08 6c4.11 0 6.642 2.674 7.64 5.176.999 2.5 1.004 6.18-1.974 9.007L314.459 49.89A36.645 36.645 0 0 1 289.124 60H6V6h334.08m0-4H2v62h287.124a40.795 40.795 0 0 0 28.09-11.21L348.5 23.084C356.509 15.48 351.125 2 340.08 2Z" style="fill:#fff"/></svg>