<?xml version="1.0" encoding="UTF-8"?>
<svg xmlns="http://www.w3.org/2000/svg" version="1.1" xmlns:xlink="http://www.w3.org/1999/xlink" viewBox="0 0 5480 2721">
  <defs>
    <filter id="outer-glow-1" filterUnits="userSpaceOnUse">
      <feOffset dx="0" dy="0"/>
      <feGaussianBlur result="blur" stdDeviation="50"/>
      <feFlood flood-color="#fff" flood-opacity=".75"/>
      <feComposite in2="blur" operator="in"/>
      <feComposite in="SourceGraphic"/>
    </filter>
  </defs>
  <g id="logo-letters" filter="url(#outer-glow-1)">
    <g id="shadow">
      <g id="shell">
        <g>
          <path d="M3891.16,559.9c-32.84,61.12-85.61,466.67-36.64,699.75,49.2,233.78,184.15,426.93,371.12,364.76,117.67-38.39,228.08-157.88,302.8-269.63,74.47-112.72,113.25-217.7,81.75-249.5-34.72-34.8-129.59,22.65-214.65,92.4-85.24,69.17-160.66,150.65-160.67,150.6.16.68,88.83-158.74,161.11-343.78,71.67-187.18,126.94-399.98,46.11-555.41-46.16-88.88-160.53-110.06-274.66-83.23-114.24,26.43-228.24,100.87-276.27,194.04Z" fill="#855a24" fill-rule="evenodd" stroke="#855a24" stroke-miterlimit="10" stroke-width="50"/>
          <path d="M3345.2,499.47c-38.88,58.72-130.92,387.69-105.13,647.24,25.95,259.34,159.23,610.92,394.52,577.06,119.25-16.76,221.86-115.93,288.84-218.34,66.81-103,97.99-209.24,70.63-253.7-61.08-99.01-391.34,174.52-390.54,175.6.16.88,107.88-165.97,201.29-361.85,92.85-197.31,171.39-423.64,100.4-574.89-92.8-198.77-446.09-168.92-560.02,8.89Z" fill="#855a24" fill-rule="evenodd" stroke="#855a24" stroke-miterlimit="10" stroke-width="50"/>
          <path d="M1307.14,399.92c-140.93-3.95-298.32,104.91-337.38,251.06-42.98,160.76,19.94,284.6,92.17,373.1,72.47,87.68,154.25,140.01,154.5,139.03.12-.33-150.88-97.14-179.84-94.04-33.93,4.58-166.68,66.48-154.83,115.69,16.44,72.85,59.59,164.7,129.5,250,70.05,84.76,166.87,162.97,293.78,196.01,230.09,60.73,394.82-48.94,401.55-322.64,7.32-294.69-183.84-410.53-243.88-454.87-63.92-48.04-110.74-76.08-110.72-76.12.16-.42,176.59,94.05,216.36,84.01,30.83-7.63,100.04-113.1,94.67-154.14-14.1-109.69-193.5-303.11-355.89-307.09Z" fill="#855a24" fill-rule="evenodd" stroke="#855a24" stroke-miterlimit="10" stroke-width="50"/>
          <path d="M1636.62,484.47c-40.23,47.23-35.68,315.64-19.9,530.14,16.2,213.3,105.3,606.35,139.13,636.67,34.26,29.95,240.25,104.27,268.39,60.4,18.24-27.77,29.75-439.86,29.83-440.04,0-.02,13.07,411.64,30.51,446.64,26.58,54.66,234.76,13.3,261.68-3.31,26.49-14.85,97.75-281.35,123.14-534.96,25.03-253.15,50.47-625.94,14.98-676.93-35.27-51.09-380.66-91.44-406.9-28.38-16,38.51-32.99,391.43-32.9,391.25,0,.01-8.22-354.51-23.38-400.14-14.62-44.07-344.64-27.67-384.59,18.66Z" fill="#855a24" fill-rule="evenodd" stroke="#855a24" stroke-miterlimit="10" stroke-width="50"/>
          <path d="M2867.04,376.21c-137.33,2.29-268.64,129.36-355.82,304.18-87.47,175.14-130.81,398.03-98.74,599.35,51.95,322.19,269.11,537.56,496.51,513.63,178.44-18.92,299.51-151.98,370.23-286.7,70.58-135.36,90.8-272.39,64.26-314.14-42.21-64.69-397.26-.87-397.11-2.25-.1,1.4,343.78-66.59,385.82-122.2,31.1-40.04-25.28-243.53-63.97-281.93-46.33-45.31-305.51-2.77-305.41-3.08-.08.71,345.19-46.2,387.43-99.18,31.51-36.84-227.66-310.69-483.21-307.69Z" fill="#855a24" fill-rule="evenodd" stroke="#855a24" stroke-miterlimit="10" stroke-width="50"/>
        </g>
      </g>
      <g id="shockers">
        <g>
          <path d="M4755.16,2343.37c108.33-17.22,231.87-123.59,267.37-246.86,78.75-270.9-189.23-341-189.55-341.57.05.1,122.58,37.47,146.35,27.86,27.63-11.2,140.32-97.9,132.77-135.93-21.73-109.31-132.77-249.54-348.86-223.86-196,23.49-331.46,140.07-331.47,335.55-.06,210.37,154.38,270.08,201.98,291.42,51.03,23.07,118.39,42.24,118.39,42.23.09.18-158.77-44.97-178.55-32.41-23,14.77-102.23,89.92-97.25,117.92,13.34,74.71,154.26,185.67,278.8,165.66Z" fill="#855a24" fill-rule="evenodd" stroke="#855a24" stroke-miterlimit="10" stroke-width="50"/>
          <path d="M4438.67,1959.98c-.08-.05,142.47-48.83,139.85-274.18-3.05-285.7-481.19-263.98-556.33-200.65-76.16,62.6-168.64,793.41-134.13,826.19,34.82,33.35,268.59,62.86,305.76,23.95,37.28-38.59,13.86-286.55,13.76-286.65.18.18,61.18,267.8,106.6,294.66,33.48,20.06,263.59-29.97,291.96-73.42,30.78-45.56-166.88-309.13-167.47-309.91ZM4262.13,1747.85c-9.17,61.92-36.92,100.19-36.92,100.2,8.54-66.55,17.12-133.08,25.73-199.56.01,0,20.44,36.87,11.19,99.37Z" fill="#855a24" fill-rule="evenodd" stroke="#855a24" stroke-miterlimit="10" stroke-width="50"/>
          <path d="M3654.87,2390.57c-210.53,13.85-415.78-317.82-377.44-598.31,31.16-224.44,206.76-374.95,397.05-373.7,298.72,2.36,400.31,315.04,356.46,377.13-34.85,50.1-320.57,33.45-320.65,33.25.05.17,277.29,20.3,310.29,53.86,24.48,24.99-22.68,170.6-53.3,199.87-36.88,35.24-241.02,23.94-241.07,23.8.02.09,176.3,14.96,208.88,47.9,23.69,23.96-84.32,223.54-280.24,236.2Z" fill="#855a24" fill-rule="evenodd" stroke="#855a24" stroke-miterlimit="10" stroke-width="50"/>
          <path d="M2889.15,1485.24c-70.18,76.3-37.95,739.78,34.4,821.11,33.35,37.29,214.17,76.4,249.63,50.97,37.71-26.73-23.58-264.68-23.74-264.73.12.04,56.72,232.72,89.03,258.16,35.12,27.84,279.69-19.22,300.69-62.87,25-50.2-208.72-346.94-208.51-400.05.06-41.17,227.86-344.49,189.5-392.36-42-51.88-259.26-74.48-289.5-57.58-36.83,20.52-87.5,275.76-87.39,275.78-.13-.03,53.69-269.86,20.33-281.52-33.48-11.66-241.05,16.71-274.43,53.09Z" fill="#855a24" fill-rule="evenodd" stroke="#855a24" stroke-miterlimit="10" stroke-width="50"/>
          <path d="M2637.57,1428.12c-219.25-11.28-413.17,348.09-359.99,625.94,42.09,222.64,212.38,364.55,395.85,353.85,314.45-18.9,363.53-414.07,346.01-487.45-14.63-60.86-325.27-16.9-325.13-17.09-.08,0-39.89,208.84-38.07,181.83,8.27-128.13,7.66-240.15-6.55-352.01-5.31-42.02,22.58,140.83,50.1,146.71,27.63,6.04,288.27,12.51,309.17-23.9,18.42-31.34-95.26-413.17-371.39-427.89Z" fill="#855a24" fill-rule="evenodd" stroke="#855a24" stroke-miterlimit="10" stroke-width="50"/>
          <path d="M714.6,2332.23c108.32,8.11,230.28-71.75,264.11-191.35,75.18-264.22-193.19-384.1-193.64-383.66.07-.06,123.02,59.42,146.66,54.03,27.51-6.21,139.17-75.79,131.26-116.66-22.82-117.27-134.57-277.37-350.61-281.4-195.99-3.69-331.27,90.39-329.37,279.16,2.08,203.14,157.94,291.21,205.86,322.15,51.45,32.88,119.19,65.85,119.18,65.85.11-.09-159.68-76.81-179.38-68.11-22.88,10.14-101.42,67.46-96.05,95.56,14.37,74.76,157.48,215.01,281.98,224.44Z" fill="#855a24" fill-rule="evenodd" stroke="#855a24" stroke-miterlimit="10" stroke-width="50"/>
          <path d="M1626.12,2286.21c31.45-33.75,30.04-230.17,18.99-386.23-10.86-156.21-82.45-433.8-111.33-451.08-28.61-17.46-202.04-50.45-225.07-18.46-15.13,20.99-16.91,354.99-16.86,354.94,0,0-18.5-332.32-33.63-355.23-23.13-35.02-196.15,4.55-217.84,15.66-21.87,11.33-73.15,192.12-85.12,361.19-12.16,169.3-18.93,416.8,10.39,451.84,29.44,35.17,297.91,72,317.28,28.74,11.67-25.97,22.14-221.91,22.17-221.94,0,0,9.33,197.23,21.72,229.11,12,31.03,267.71,25.57,299.28-8.52Z" fill="#855a24" fill-rule="evenodd" stroke="#855a24" stroke-miterlimit="10" stroke-width="50"/>
          <path d="M2304.29,1283.84c281.09,79.34,84.26,360.63,104,501.15,20.03,141.12,506.61,293.36,407.24,433.69-74.48,109.29-554.64-202.9-514.58-25.36,27.59,119.18,103.36,212.24-177.11,238.89-404.74,36.8-455.37,40.07-449.25-352.54,2.5-115.55-308.74-219.5-230.9-390.06,78.71-171.17,204.65-141.05,303.97-177.12,103.93-37.7,236.06-318.13,556.63-228.64Z" fill="#855a24" fill-rule="evenodd" stroke="#855a24" stroke-miterlimit="10" stroke-width="50"/>
        </g>
      </g>
    </g>
    <g id="face">
      <g id="shell-2" data-name="shell">
        <g>
          <path d="M3901.5,463.07c-33.23,51.49-88.54,394.36-41.1,604.1,47.69,209.83,181.17,410.73,370.08,412.23,236.61,1.78,452.92-306.75,390.2-389.21-71.45-91.83-380.67,132.93-379.58,133.59.07-.09,90.29-124.22,163.6-287.05,72.8-162.94,128.68-364.59,48.37-522.24-92.15-180.82-454.91-105.58-551.57,48.58Z" fill="#fff0c1" fill-rule="evenodd" stroke="#855a24" stroke-linecap="round" stroke-linejoin="round" stroke-width="50"/>
          <path d="M3356.04,380.35c-39.21,47.39-132.3,313.07-107.53,526.91,25.05,214.01,155.4,511.45,389.57,522.98,236.62,11.89,415.28-257.16,361.92-346.27-60.75-99.24-392.1,89.63-391.08,90.4.1-.09,108.49-124.72,203.05-282.69,93.97-158.16,174.09-349.66,104.02-487.76-91.43-180.68-445.27-165.69-559.95-23.57Z" fill="#fff0c1" fill-rule="evenodd" stroke="#855a24" stroke-linecap="round" stroke-linejoin="round" stroke-width="50"/>
          <path d="M1317.84,345.77c-140.87,6.52-297.62,123.99-336.51,274.42-84.41,330.9,250.67,441.04,249.7,441.84.14-.16-152.22-57.44-181.43-47.49-34.06,11.2-168.3,110.58-156.47,158.87,33.76,138.65,173.76,317.8,429.36,302.33,232.13-13.77,395.39-139.92,400.46-376.21,5.49-254.37-186.33-331.65-246.73-363.42-64.26-34.32-111.31-53.52-111.29-53.53.17-.21,177.34,60.81,217.01,47.17,30.79-10.83,99.29-109.47,93.66-144.06-14.78-92.24-195.43-247.81-357.77-239.92Z" fill="#fff0c1" fill-rule="evenodd" stroke="#855a24" stroke-linecap="round" stroke-linejoin="round" stroke-width="50"/>
          <path d="M1647.8,395.54c-39.92,43.43-33.66,277.25-16.51,462.19,17.58,184.9,109.11,510.46,143.01,529.44,34.48,18.56,239.87,48.35,267.49,9.13,17.94-25.88,27.26-370.29,27.36-370.29,0,0,15.12,341.3,32.61,368.21,26.72,40.79,232.91-13.6,259.5-27.56,26.17-14.35,96.01-235.51,120.74-442.09,24.29-206.62,49.06-509.36,13.47-550.21-35.32-41.75-380.98-65.81-406.92-11.48-15.83,32.33-31.03,326.47-30.93,326.47,0,0-9.99-294.13-25.38-331.45-14.84-36.88-344.8-6.62-384.44,37.65Z" fill="#fff0c1" fill-rule="evenodd" stroke="#855a24" stroke-linecap="round" stroke-linejoin="round" stroke-width="50"/>
          <path d="M2878.13,269.88c-137.48,1.07-268.82,104.33-355.5,247.95-87.03,143.62-129.4,327.6-96.98,490.1,52.73,260.29,267.83,422.43,492.61,410.34,351.93-18.47,484.59-393.25,433-466.37-41.83-58.99-395.27-22.31-395.02-21.42-.19-.84,342.08-41.01,384.33-82.05,31.18-31.09-24.12-202.53-62.6-235.51-46.09-40.22-304.83-12.74-304.69-12.28-.08-.34,222.88-30.12,265.04-71.2,31.15-30.03-104.63-261.51-360.2-259.56Z" fill="#fff0c1" fill-rule="evenodd" stroke="#855a24" stroke-linecap="round" stroke-linejoin="round" stroke-width="50"/>
        </g>
      </g>
      <g id="shockers-2" data-name="shockers">
        <g>
          <path d="M4772.43,2287.9c108.89-4.21,230.22-94.81,261.92-214.67,70.17-264.54-200.03-361.53-200.24-361.18.03-.07,123.67,48.86,147.17,41.82,27.35-8.36,137.23-84.03,128.42-123.17-25.33-112.49-140-262.87-354.14-252.91-194.29,9.17-326.71,114.46-322.53,304.59,4.47,204.58,160.95,276.6,209.34,302.55,51.83,27.56,120.07,53.58,120.06,53.59.06-.12-160.71-60.45-180.24-49.64-22.71,12.39-100.57,78.69-94.93,106.52,15.06,73.95,159.94,197.19,285.16,192.51Z" fill="#fff0c1" fill-rule="evenodd" stroke="#855a24" stroke-linecap="round" stroke-linejoin="round" stroke-width="50"/>
          <path d="M4444.42,1879.35c-.04-.1,141.77-35.66,133.6-257-10.15-282.26-485.01-287.32-559.02-229.04-74.58,57.02-156.64,751.65-121.5,785.03,35.53,33.55,271.86,79.51,308.59,45.49,36.8-34.31,8.35-276.32,8.29-276.32.11-.01,66.75,263.97,113.24,294.51,34.22,22.11,265.18-3.83,292.59-43.33,29.58-42.68-175.43-319.55-175.79-319.34ZM4263.17,1660.15c-7.94,59.37-34.99,94.52-34.99,94.53,7.27-63.81,14.56-127.62,21.87-191.43,0,0,21.14,36.97,13.11,96.91Z" fill="#fff0c1" fill-rule="evenodd" stroke="#855a24" stroke-linecap="round" stroke-linejoin="round" stroke-width="50"/>
          <path d="M3663.49,2240.43c-212.65,1.36-421.64-317.59-384.72-581.74,29.84-211.48,203.58-350.56,392.94-343.1,297.13,11.93,403.78,319.42,361.07,376.53-34.04,45.56-320.38,15.37-320.43,15.76.04-.37,277.86,32.51,311.51,67.37,24.95,25.51-19.9,162.62-50.22,188.76-36.48,31.17-241.81,9.05-241.84,9.25.02-.15,177.33,23.6,210.63,57.55,24.26,24.82-81.33,208.32-278.94,209.62Z" fill="#fff0c1" fill-rule="evenodd" stroke="#855a24" stroke-linecap="round" stroke-linejoin="round" stroke-width="50"/>
          <path d="M2889.7,1363.39c-69.82,71.67-37.11,697.36,36.13,774.76,33.64,35.17,216.1,75.2,251.72,52.35,37.81-24.38-25.21-250.69-25.3-250.68.07-.01,58.27,221.12,91.07,246.16,35.6,26.77,281.78-8.7,302.41-48.82,24.36-47.35-213.1-337.16-212.99-386.7.04-38.99,224.99-319.95,186.03-366.59-42.4-50.79-258.92-77-288.94-61.27-36.51,18.78-85.77,259.11-85.7,259.11-.08-.01,52.19-254.08,18.87-265.63-33.39-11.77-240.04,12.91-273.29,47.29Z" fill="#fff0c1" fill-rule="evenodd" stroke="#855a24" stroke-linecap="round" stroke-linejoin="round" stroke-width="50"/>
          <path d="M2638.98,1309.35c-217.92-10.17-413.56,333.74-362.26,595.45,40.78,209.57,211.92,339.15,397.09,328.39,317.47-17.99,365.1-387.86,347.25-458.05-14.86-58.31-325.94-18.27-325.86-17.8-.05,0-40.18,197.06-38.36,171.6,8.45-120.87,7.93-226.5-6.15-331.94-5.27-39.6,22.42,132.7,50.01,138.2,27.66,5.13,288.84,12.61,309.64-21.02,18.2-29.17-96.68-391.84-371.36-404.83Z" fill="#fff0c1" fill-rule="evenodd" stroke="#855a24" stroke-linecap="round" stroke-linejoin="round" stroke-width="50"/>
          <path d="M699.45,2279.38c109.11-5.07,234.2-96.6,271-216.67,81.48-264.95-184.34-360.03-184.6-359.7.04-.07,121.54,48,145.36,40.8,27.72-8.55,140.98-84.96,133.93-124.02-20.31-112.27-128.08-261.86-342.74-250.55-194.76,10.39-332.16,116.6-336.46,306.86-4.62,204.71,148.91,275.63,196.19,301.22,50.67,27.18,129.31,52.55,129.3,52.56.07-.14-169.67-59.14-189.67-48.17-23.26,12.56-103.98,79.48-99.52,107.28,11.91,73.89,151.74,196.07,277.21,190.4Z" fill="#fff0c1" fill-rule="evenodd" stroke="#855a24" stroke-linejoin="round" stroke-width="50"/>
          <path d="M1619.24,2152.82c32.2-34.3,33.54-222.01,24.67-370.71-8.76-148.72-76.18-411.16-104.59-426.55-28.26-15.58-200.33-39.1-223.81-6.9-15.4,20.96-23.42,343.72-23.39,343.71,0,0-12.25-319.96-26.87-341.32-22.36-32.82-195.32,15.43-217.19,27.87-21.98,12.27-77.14,192.12-93.17,358.8-16.15,166.67-29.08,410.43-.4,441.87,28.75,31.05,298.64,42.07,319.01-.77,12.29-26.15,26.57-216.46,26.59-216.46,0,0,5.61,190.03,17.5,219.85,11.5,28.49,269.37,4.55,301.65-29.39Z" fill="#fff0c1" fill-rule="evenodd" stroke="#855a24" stroke-linecap="round" stroke-linejoin="round" stroke-width="50"/>
        </g>
      </g>
    </g>
    <g id="shocks" display="none">
      <path d="M1080.89,342.96c6.82-2.19-87.49,52.83-143.73,157.11-51.8,96.05-58.57,221.28-58.39,216.02,0,0-52.23-143.08-.04-239.8,67.38-124.84,202.17-133.33,202.17-133.33Z" fill="#806051" fill-rule="evenodd" stroke-width="0"/>
      <path d="M2631.66,273.26s58.01-59.06,166.46-85.21c126.17-30.42,230.24,9.91,230.24,9.91,0,0-119.27-96.17-238.17-64.47-118.9,31.71-158.53,139.77-158.53,139.77Z" fill="#806051" fill-rule="evenodd" stroke-width="0"/>
      <path d="M3936.24,273.26s-60.77-62.79-161.17-83.93c-100.4-21.14-212.7,0-212.7,0,0,0,110.97-77.7,224.59-52.6,113.61,25.1,149.28,136.52,149.28,136.52Z" fill="#806051" fill-rule="evenodd" stroke-width="0"/>
      <path d="M4563.77,717.11s25.76-108.99,13.87-204.11c-11.89-95.12-47.56-144.41-47.56-144.41,0,0,93.7,57.62,104.06,146.39,13.89,118.9-70.38,202.13-70.38,202.13Z" fill="#806051" fill-rule="evenodd" stroke-width="0"/>
      <path d="M4740.13,1285.86s113.08-17.83,206.22,19.82c93.14,37.65,134.62,94.92,134.62,94.92,1.14,5.71-24.92-119.99-126.83-153.84-103.05-34.22-214.02,39.1-214.02,39.1Z" fill="#806051" fill-rule="evenodd" stroke-width="0"/>
      <path d="M788.72,1272.01s-111.92-10.94-207.04,24.72c-88.79,33.3-147.68,88.26-147.68,88.26,0,0,29.72-114.01,132.77-149.68,100.09-34.65,221.94,36.69,221.94,36.69Z" fill="#806051" fill-rule="evenodd" stroke-width="0"/>
      <path d="M1664.61,288.26s81.25-25.8,164.48-33.72c83.23-7.93,152.59,0,152.59,0,0,0-65.39-61.43-158.53-49.54-93.14,11.89-158.53,83.27-158.53,83.27Z" fill="#806051" fill-rule="evenodd" stroke-width="0"/>
      <path d="M4676.03,2391.93s56.1,18.14,145.28-3c73.17-17.34,153.32-100.69,153.32-100.69,0,0-10.57,119.18-112.97,150.89-93.35,28.9-185.63-47.2-185.63-47.2Z" fill="#806051" fill-rule="evenodd" stroke-width="0"/>
      <path d="M3492.35,2393.21s54.41,47.45,135.53,51.47,163.04-30.73,163.04-30.73c0,0-75.14,106.09-171.04,90.24s-127.53-110.97-127.53-110.97Z" fill="#806051" fill-rule="evenodd" stroke-width="0"/>
      <path d="M2908.43,2368.43s-67.48,58.92-142.68,82.55c-92.48,29.06-190.24,2.64-190.24,2.64,0,0,100.4,83.91,214.02,52.2,81.32-22.69,118.9-137.39,118.9-137.39Z" fill="#806051" fill-rule="evenodd" stroke-width="0"/>
      <path d="M1866.78,2507.54s-85.21-6.98-148.62-58.5c-42.54-34.56-51.52-85.21-51.52-85.21,0,0-31.1,91.03,29.72,134.75,63.41,45.58,170.42,8.96,170.42,8.96Z" fill="#806051" fill-rule="evenodd" stroke-width="0"/>
      <path d="M414.87,2208.61s63.41,81.91,132.11,125.5,145.32,51.52,145.32,51.52c0,0-96.37,41.67-159.78,3.36-99.97-60.4-117.65-180.39-117.65-180.39Z" fill="#806051" fill-rule="evenodd" stroke-width="0"/>
    </g>
    <g id="logo-egg" display="none">
      <path id="white" d="M2272.35,1079.12c275.33,74.63,79.48,339.67,96.84,472.19,17.35,132.52,210.3,254.46,111.27,386.82-76.42,102.14-195.82,42.56-335.56,95.19-139.74,52.63-137.17,190.62-351.05,159.09-177.72-26.2-174.2-266.79-213.96-354.5-45.47-100.29-254.52-204.6-169.18-369.46,85.34-164.86,208.49-136.64,308.05-171.59,104.67-36.75,241.18-302.42,553.61-217.73Z" fill="#fff" fill-rule="evenodd" stroke="#b9812b" stroke-linejoin="round" stroke-width="50"/>
      <g id="yolk">
        <path d="M1974.67,1876.58c-68,0-131.93-26.49-180.01-74.6-48.08-48.1-74.56-112.06-74.56-180.09s26.48-131.98,74.56-180.09c48.08-48.11,112.01-74.6,180.01-74.6s131.93,26.49,180.01,74.6c48.08,48.1,74.56,112.06,74.56,180.09s-26.48,131.98-74.56,180.09c-48.08,48.11-112.01,74.6-180.01,74.6Z" fill="#f99f43" fill-rule="evenodd" stroke-width="0"/>
        <path d="M1974.66,1387.21c129.55,0,234.57,105.07,234.57,234.69s-105.02,234.69-234.57,234.69-234.57-105.07-234.57-234.69,105.02-234.69,234.57-234.69M1974.66,1347.21c-37.05,0-73.02,7.27-106.89,21.61-32.7,13.84-62.06,33.64-87.26,58.86-25.2,25.21-44.99,54.59-58.82,87.3-14.33,33.89-21.59,69.86-21.59,106.93s7.26,73.04,21.59,106.93c13.83,32.71,33.62,62.09,58.82,87.3,25.2,25.22,54.56,45.02,87.26,58.86,33.88,14.34,69.84,21.61,106.89,21.61s73.02-7.27,106.89-21.61c32.7-13.84,62.06-33.64,87.26-58.86,25.2-25.21,44.99-54.59,58.82-87.3,14.33-33.89,21.59-69.86,21.59-106.93s-7.26-73.04-21.59-106.93c-13.83-32.71-33.62-62.09-58.82-87.3-25.2-25.22-54.56-45.02-87.26-58.86-33.88-14.34-69.84-21.61-106.89-21.61h0Z" fill="#df8029" stroke-width="0"/>
      </g>
      <path id="highlight" d="M1833.92,1492.13c-52.84,57.59-55.18,146.34-38.63,149.1,15.86,2.64,39.64-62.32,88.31-110.44,45.82-45.31,104.87-69.03,104.87-82.83s-100.42-14.8-154.54,44.18Z" fill="#fbeab7" fill-rule="evenodd" stroke-width="0"/>
    </g>
    <text transform="translate(4916.36 2415.11)" fill="#b9812b" font-family="Arial-Black, Arial" font-size="128" font-weight="800"><tspan x="0" y="0">TM</tspan></text>
    <g>
      <g>
        <path d="M1780.33,1937.81c-29.54-1.16-57.47-6.75-83.35-16.69-35.14-13.49-68.25-37.43-93.26-67.43-25.46-30.51-41.6-65.7-46.65-101.79-2.87-20.45-1.4-37.21,4.14-47.21,6.76-12.21,24.22-21.12,44.47-22.71l1.02-.07c22.94-1.55,49.03,4.65,74.82,11.56l-13.23-68.55c-22.34-5.05-44.86-8.32-67.44-6.55-35.14,2.73-71.07,19.72-89.3,52.63-14.56,26.28-16.11,59.19-11.83,89.81,14.27,101.88,90.06,186.43,178.76,220.51,49.49,19.01,102.08,23.92,154.09,18.35l-52.22-61.87Z" fill="#c89143" stroke-width="0"/>
        <path d="M1792.6,2039.34c-44.94,0-87.69-7.7-127.58-23.02-50.74-19.49-96.61-52.62-132.64-95.81-37.87-45.38-62.01-98.81-69.81-154.5-6.13-43.89-.54-83.03,16.17-113.19,22.68-40.95,67.24-67.81,119.19-71.84,23.34-1.82,48.33.52,78.61,7.37l23.91,5.4,29.24,151.46-57.89-15.51c-21.04-5.64-44.96-11.55-62.59-10.36l-.79.05c-7.69.63-12.53,2.95-14.52,4.24-.7,3.17-1.43,10.73.3,23.07,4.08,29.14,17.32,57.83,38.3,82.97,20.99,25.17,48.66,45.22,77.91,56.44,22,8.45,46.02,13.23,71.39,14.23l16.52.65,108.44,128.46-70.21,7.52c-14.86,1.59-29.52,2.39-43.95,2.39Z" fill="#855a24" stroke-width="0"/>
      </g>
      <g>
        <path d="M2144.91,1978.59c52.28-1.47,103.74-13.4,150.22-38.89,83.33-45.68,147.06-139.65,147.52-242.52.13-30.92-5.84-63.33-23.79-87.41-22.48-30.16-60.37-42.17-95.56-40.15-22.61,1.29-44.49,7.55-65.95,15.56l-3.9,69.71c24.63-10.31,49.64-19.96,72.59-21.51l1.02-.07c20.28-1.15,38.78,5.34,47.12,16.53,6.83,9.16,10.53,25.57,10.44,46.22-.16,36.44-11.42,73.48-32.55,107.14-20.76,33.08-50.36,61.26-83.36,79.34-24.32,13.33-51.24,22.62-80.36,27.74l-43.44,68.32Z" fill="#c89143" stroke-width="0"/>
        <path d="M2075.38,2018.06l90.19-141.86,16.28-2.86c25.01-4.4,48.16-12.37,68.83-23.69,27.48-15.06,52.2-38.63,69.62-66.39,17.42-27.74,26.69-57.95,26.82-87.37.06-12.47-1.68-19.86-2.81-22.9-2.14-1.01-7.25-2.66-14.95-2.25l-.77.05c-17.65,1.19-40.56,10.27-60.65,18.68l-55.28,23.15,8.62-154.01,22.96-8.57c29.09-10.85,53.54-16.53,76.92-17.86,52.02-2.97,99.78,17.65,127.76,55.18,20.61,27.64,31.41,65.67,31.23,109.97-.25,56.25-16.99,112.43-48.42,162.49-29.91,47.64-70.91,86.63-118.57,112.76-49.5,27.14-105.75,41.77-167.2,43.49l-70.58,1.98ZM2345.31,1673.54h0ZM2343.77,1671.73s0,0,0,0t0,0Z" fill="#855a24" stroke-width="0"/>
      </g>
      <g>
        <path d="M1628.1,1566.56c3.56,13.92,16.66,22.18,29.28,18.47,46.23-13.58,158.87-42.79,300.55-52.35,141.68-9.56,257.23,4.25,304.86,11.5,13.01,1.98,24.88-7.97,26.53-22.24l12.01-103.66c1.67-14.44-7.75-27.75-20.93-29.54-50.72-6.91-177.22-20.43-332.86-9.93-155.64,10.5-279.17,40.9-328.5,54.56-12.82,3.55-20.37,18-16.77,32.09l25.83,101.11Z" fill="#c89143" stroke-width="0"/>
        <path d="M1651.19,1623.44c-10.2,0-20.29-2.66-29.48-7.89-14.72-8.38-25.64-22.85-29.94-39.71l-25.83-101.11c-8.63-33.77,10.71-68.54,43.1-77.51,47.6-13.18,175.63-45.01,335.99-55.83,160.35-10.82,291.5,3.52,340.44,10.19,33.3,4.54,57.13,36.39,53.12,71.01l-12.01,103.66c-2,17.28-10.87,33.09-24.34,43.37-13.02,9.94-29.03,14.07-45.09,11.63-42.69-6.49-157.04-20.58-296.7-11.16-139.64,9.42-251.08,38.75-292.51,50.92-5.53,1.62-11.16,2.43-16.76,2.43ZM1664.42,1557.23v.04s0-.03,0-.04ZM1641.17,1466.22l20.1,78.7c52-14.44,161.07-40.68,294.13-49.66,133.06-8.98,244.67,2.36,298.14,9.69l9.35-80.68c-54.09-6.74-171.42-17.59-312.82-8.05-141.41,9.54-256.21,36.06-308.9,50Z" fill="#855a24" stroke-width="0"/>
      </g>
    </g>
    <g>
      <path d="M2156.82,2208.09l-151.61,37.09-155.22-16.39c35.78-45.13,58-100.47,64.07-157.43.62-5.95,1.08-11.95,1.36-17.93l153.02-10.33c11.38,62.22,42.54,120.89,88.39,164.98Z" fill="#fdba4d" stroke-width="0"/>
      <path d="M2156.82,2208.09l-152.46,24.58-137.85-4.99c69.66-7.95,114.33-16.5,158.48-23.82,30.03-4.99,47.98-32.21,36.35-61.22-9.71-24.2-15.67-50.55-19.41-75.27-39.79,12.56-88.07,13.2-127.87,4-.08-.01-.14-.04-.22-.05.73-5.93,1.26-11.91,1.58-17.87l153.02-10.33c11.38,62.22,42.54,120.89,88.39,164.98Z" fill="#f4a749" stroke-width="0"/>
      <path d="M1779.52,1937.81c-29.54-1.16-57.47-6.75-83.35-16.69-35.14-13.49-68.25-37.43-93.26-67.43-25.46-30.51-41.6-65.7-46.65-101.79-2.87-20.45-1.4-37.21,4.14-47.21,6.76-12.21,24.22-21.12,44.47-22.71l1.02-.07c22.94-1.55,49.03,4.65,74.82,11.56l-13.23-68.55c-22.34-5.05-44.86-8.32-67.44-6.55-35.14,2.73-71.07,19.72-89.3,52.63-14.56,26.28-16.11,59.19-11.83,89.81,14.27,101.88,90.06,186.43,178.76,220.51,49.49,19.01,102.08,23.92,154.09,18.35l-52.22-61.87Z" fill="#fdba4d" stroke-width="0"/>
      <path d="M1680.7,1693.48c-25.79-6.91-51.87-13.11-74.82-11.56l-1.02.07c-20.25,1.59-37.71,10.5-44.47,22.71-3.44,6.21-5.3,15.06-5.54,25.77l-.09-.61c-2.87-20.45-1.4-37.21,4.14-47.21,6.76-12.21,24.22-21.12,44.47-22.71l1.02-.07c22.08-1.49,47.06,4.18,71.9,10.78l4.4,22.82Z" fill="#f4a749" stroke-width="0"/>
      <path d="M1676.17,1959.27c44.43,17.07,91.35,22.77,138.13,19.74l17.45,20.66c-52.01,5.57-104.6.65-154.09-18.35-88.71-34.08-164.49-118.62-178.76-220.51-1.22-8.72-1.96-17.63-2.07-26.53.18,1.5.37,3.01.58,4.49" fill="#f4a749" stroke-width="0"/>
      <path d="M2144.1,1978.59c52.28-1.47,103.74-13.4,150.22-38.89,83.33-45.68,147.06-139.65,147.52-242.52.13-30.92-5.84-63.33-23.79-87.41-22.48-30.16-60.37-42.17-95.56-40.15-22.61,1.29-44.49,7.55-65.95,15.56l-3.9,69.71c24.63-10.31,49.64-19.96,72.59-21.51l1.02-.07c20.28-1.15,38.78,5.34,47.12,16.53,6.83,9.16,10.53,25.57,10.44,46.22-.16,36.44-11.42,73.48-32.55,107.14-20.76,33.08-50.36,61.26-83.36,79.34-24.32,13.33-51.24,22.62-80.36,27.74l-43.44,68.32Z" fill="#fdba4d" stroke-width="0"/>
      <path d="M2386.8,1698.66c-.16,39.08-12.25,78.82-34.91,114.91-22.26,35.48-54,65.7-89.4,85.08-26.08,14.3-54.96,24.27-86.18,29.75l-31.91,50.19c-.11,0-.2,0-.31,0l43.44-68.32c29.11-5.12,56.04-14.41,80.36-27.74,33.01-18.09,62.61-46.26,83.36-79.34,21.13-33.65,32.4-70.69,32.55-107.14.09-20.65-3.62-37.06-10.44-46.22-8.34-11.19-26.84-17.67-47.12-16.53l-1.02.07c-22.94,1.55-47.96,11.19-72.59,21.51l.18-3.13c24.23-9.98,48.64-18.78,71.17-20.3l1.09-.07c21.74-1.23,41.58,5.73,50.53,17.73,7.32,9.83,11.29,27.43,11.19,49.56Z" fill="#f4a749" stroke-width="0"/>
      <path d="M2441.84,1697.18c-.46,102.88-64.19,196.84-147.52,242.52-46.48,25.48-97.94,37.42-150.22,38.89l8.29-13.03c44.15-3.69,87.24-15.37,126.71-37,81.73-44.81,144.25-136.99,144.7-237.89.12-30.34-5.72-62.12-23.34-85.75-12.31-16.51-29.33-27.47-47.96-33.59,25.32,4.47,49.41,16.78,65.55,38.43,17.96,24.08,23.92,56.49,23.79,87.41Z" fill="#f4a749" stroke-width="0"/>
      <path d="M2261.98,1544.18c5.81,86.05-13.23,500.56-269.14,517.83-255.91,17.27-330.47-390.93-336.27-476.97,0,0-3.77-54.85,299.01-75.28,302.71-20.43,306.41,34.43,306.41,34.43Z" fill="#fdba4d" stroke-width="0"/>
      <path d="M2261.98,1544.18c5.81,86.03-13.23,500.56-269.14,517.83-89.96,6.07-157.53-40.45-207.55-107.06,44.88,48.02,102.2,78.9,174.78,74,244.75-16.52,262.97-412.95,257.42-495.23,0,0-.8-11.84-32.64-22.15,75.68,11.06,77.14,32.62,77.14,32.62Z" fill="#f4a749" stroke-width="0"/>
      <path d="M2109.83,1722.75l-68.24,65.32c-2.38,2.27-3.2,5.95-2.06,9.22l32.68,93.9c2.58,7.41-4.75,14.13-10.94,10.03l-78.44-51.98c-2.73-1.8-6.17-1.57-8.64.58l-70.74,62.04c-5.58,4.89-13.75-.78-12.19-8.47l19.76-97.44c.69-3.39-.62-6.92-3.28-8.86l-76.4-55.56c-6.03-4.39-3.75-14.61,3.41-15.26l90.66-8.25c3.16-.29,5.79-2.7,6.61-6.06l23.52-96.38c1.86-7.61,11.43-8.26,14.3-.96l36.26,92.35c1.26,3.21,4.2,5.25,7.36,5.11l90.94-4.01c7.18-.32,10.81,9.5,5.43,14.67Z" fill="#f4a749" stroke-width="0"/>
      <path d="M1627.29,1566.56c3.56,13.92,16.66,22.18,29.28,18.47,46.23-13.58,158.87-42.79,300.55-52.35,141.68-9.56,257.23,4.25,304.86,11.5,13.01,1.98,24.88-7.97,26.53-22.24l12.01-103.66c1.67-14.44-7.75-27.75-20.93-29.54-50.72-6.91-177.22-20.43-332.86-9.93-155.64,10.5-279.17,40.9-328.5,54.56-12.82,3.55-20.37,18-16.77,32.09l25.83,101.11Z" fill="#fdba4d" stroke-width="0"/>
      <path d="M2300.53,1418.28l-12.01,103.66c-1.65,14.27-13.52,24.21-26.53,22.25-47.62-7.24-163.19-21.06-304.86-11.5-141.68,9.56-254.33,38.78-300.55,52.36-12.63,3.7-25.73-4.57-29.28-18.48l-2.21-8.69c46.56-13.65,158.88-42.68,300.05-52.2,141.68-9.56,257.22,4.24,304.86,11.5,13,1.97,24.88-7.98,26.53-22.25l12-103.66c.16-1.34.21-2.65.18-3.96,3.95.5,7.57.97,10.89,1.43,13.19,1.8,22.61,15.12,20.94,29.55Z" fill="#f4a749" stroke-width="0"/>
      <path d="M1969.83,1614.62l.99,2.52c-.45.73-.79,1.57-1.02,2.52l-23.53,96.38c-.81,3.36-3.45,5.77-6.6,6.05l-90.65,8.25c-7.17.65-9.44,10.87-3.41,15.27l76.4,55.57c2.67,1.93,3.97,5.45,3.28,8.86l-19.76,97.43c-.18.93-.23,1.84-.14,2.7l-1.94,1.7c-5.58,4.91-13.75-.78-12.18-8.46l19.76-97.45c.7-3.39-.61-6.93-3.28-8.86l-76.4-55.55c-6.04-4.4-3.76-14.62,3.41-15.27l90.65-8.25c3.15-.28,5.79-2.71,6.6-6.05l23.53-96.39c1.86-7.6,11.44-8.25,14.3-.97Z" fill="#e99645" stroke-width="0"/>
      <path d="M2215.32,2287.76c-35.63,15.14-116.99,25.78-205.1,31.73-88.11,5.95-170.16,6.33-207.51-3.88-7.74-2.11-12.28-9.35-11.79-17.4,1.08-18.09,5.65-35.31,14.17-49.49,11.03-18.36,32.91-19.11,55.58-20.64l285.46-19.26c22.67-1.53,44.46-3.72,57.85,12.99,10.35,12.91,17.19,29.36,20.69,47.13,1.56,7.91-1.96,15.69-9.35,18.83Z" fill="#fdba4d" stroke-width="0"/>
      <path d="M2215.32,2287.76c-35.63,15.15-116.99,25.78-205.1,31.73-88.11,5.95-170.16,6.34-207.51-3.88-6.21-1.69-10.36-6.68-11.49-12.75,1.35.98,2.9,1.73,4.64,2.21,33.78,9.25,108.05,8.89,187.79,3.51s153.37-15,185.62-28.71c6.68-2.84,9.88-9.88,8.46-17.04-3.18-16.09-9.35-30.97-18.73-42.65-4.82-6.01-10.83-9.32-17.63-11.04l4.76-.32c22.68-1.53,44.47-3.73,57.86,12.99,10.34,12.89,17.18,29.35,20.69,47.13,1.56,7.92-1.96,15.68-9.35,18.82Z" fill="#f4a749" stroke-width="0"/>
      <path d="M1685.97,1598.15s23.12,129.14,51.92,203.67c0,0,36.04-187.47,88.66-231.01,0,0-61.71,3.66-140.58,27.35Z" fill="#ffcb66" stroke-width="0"/>
      <path d="M1638.72,1531.43l-15.65-61.08c-1.68-6.54,1.66-13.31,7.55-15.24,22.7-7.48,80.63-24.79,159.21-35.5,0,0-121.37,44.41-151.11,111.82Z" fill="#ffcb66" stroke-width="0"/>
      <path d="M1925.8,2093.11s-1.98,51.95-31.25,99.21c0,0,60.54-27.11,88.01-94.37,0,0-28.03.77-56.75-4.84Z" fill="#ffcb66" stroke-width="0"/>
      <path d="M1817.53,2278.57l2.51-12.2c2.22-10.79,10.48-18.72,20.53-19.68,13.96-1.33,35.82-3.02,62.66-3.77,0,0-42.69,12.73-72.43,43.94-1.35,1.41-3.09,2.29-4.96,2.41h0c-5.3.36-9.47-5.02-8.3-10.69Z" fill="#ffcb66" stroke-width="0"/>
      <path d="M1514.13,1678.8c-15.25,31.1-15.22,58.42-1.74,99.6,0,0-10.97-115.1,75.65-149.37,0,0-51.2,3.46-73.91,49.76Z" fill="#ffcb66" stroke-width="0"/>
    </g>
    <text transform="translate(1395.66 2562.02) rotate(.55) scale(1.13 1)" display="none" fill="#fdb94c" font-family="LuckiestGuy-Regular, &apos;Luckiest Guy&apos;" font-size="867.86" stroke="#b9812b" stroke-linecap="round" stroke-linejoin="round" stroke-width="35"><tspan x="0" y="0">200M</tspan></text>
    <text transform="translate(2033.98 2667.44) rotate(.55) scale(.79 1)" display="none" fill="#fff15f" font-family="LuckiestGuy-Regular, &apos;Luckiest Guy&apos;" font-size="457.51" stroke="#643219" stroke-linecap="round" stroke-linejoin="round" stroke-width="17.32"><tspan x="0" y="0">PLAYERS!</tspan></text>
    <path d="M698.69,847.77c2.32-5.48,14.9-36.7,0-71.33-12.21-28.37-43.9-26.08-59.44-51.51-21.84-35.74,1.72-82.72,3.96-87.18,16.98-33.8,46.66-47.75,55.48-51.51" fill="none" fill-rule="evenodd" stroke="#fdb94c" stroke-miterlimit="10" stroke-width="60"/>
    <path d="M4946.5,942.87c21.65,54.91,14.77,83.26,3.96,99.06-23.32,34.11-72.31,20.63-106.99,55.48-28.7,28.84-30.59,73.71-27.74,106.99" fill="none" fill-rule="evenodd" stroke="#fdb94c" stroke-miterlimit="10" stroke-width="60"/>
    <path d="M4650.2,468.86c-44.91,32.05-64.04,84.18-48.49,130.76,11.74,35.16,61.56,35.75,88.16,79.25,19.28,31.53,17.08,65.57,13.22,87.18" fill="none" fill-rule="evenodd" stroke="#fdb94c" stroke-miterlimit="10" stroke-width="60"/>
    <path d="M3050.54,2020.48c-41.14,6.8-91.68,21.21-102.99,55.54-14.06,42.65,43.77,81.66,31.49,125.11-6.51,23.05-33.72,50.74-129.3,66.68" fill="none" fill-rule="evenodd" stroke="#fdb94c" stroke-miterlimit="10" stroke-width="60"/>
    <path d="M2442.66,251.28c9.27,23.61-3.82,108.63,31.24,140.9,63.95,58.87,158.1.83,191.28,50.23,14.9,22.18,28.02,62.66,2.93,140.68" fill="none" fill-rule="evenodd" stroke="#fdb94c" stroke-miterlimit="10" stroke-width="60"/>
    <path d="M449.05,1085.52c29.68,95.47,64.02,121.74,91.14,126.8,38.6,7.2,66.38-27.86,103.03-15.85,34.21,11.22,50.77,55.15,59.44,91.14" fill="none" fill-rule="evenodd" stroke="#fdb94c" stroke-miterlimit="10" stroke-width="60"/>
    <path d="M544.61,1669.04c-98.21,30.13-127.92,71.75-135.75,105.88-11.14,48.58,20.95,86.79,5.22,132.49-14.69,42.67-60.18,60.22-96.95,68.37" fill="none" fill-rule="evenodd" stroke="#fdb94c" stroke-miterlimit="10" stroke-width="67.82"/>
    <path d="M3142.43,1119.79c-22.74,50.27-13.09,104.96,23.75,137.43,27.81,24.51,71.19,0,116.04,24.24,32.51,17.57,47.7,48.12,55.22,68.74" fill="none" fill-rule="evenodd" stroke="#fdb94c" stroke-miterlimit="10" stroke-width="60"/>
  </g>
</svg>