<?xml version="1.0" encoding="UTF-8"?>
<svg id="Layer_2" data-name="Layer 2" xmlns="http://www.w3.org/2000/svg" viewBox="0 0 482.99 224.15">
  <defs>
    <style>
      .cls-1 {
        fill: #007b26;
      }

      .cls-1, .cls-2, .cls-3, .cls-4, .cls-5, .cls-6, .cls-7, .cls-8, .cls-9, .cls-10, .cls-11, .cls-12, .cls-13 {
        stroke-width: 0px;
      }

      .cls-2 {
        fill: #ffcb1d;
      }

      .cls-2, .cls-13 {
        fill-rule: evenodd;
      }

      .cls-3 {
        fill: #ff162b;
      }

      .cls-4 {
        fill: #2ece00;
      }

      .cls-5 {
        fill: #b8ff72;
      }

      .cls-6 {
        fill: #ffe398;
      }

      .cls-7 {
        fill: #eeeff1;
      }

      .cls-8, .cls-13 {
        fill: #084f66;
      }

      .cls-9 {
        fill: #fff;
      }

      .cls-10 {
        fill: #7bff1d;
      }

      .cls-11 {
        fill: #00892a;
      }

      .cls-12 {
        fill: #ffc239;
      }
    </style>
  </defs>
  <g id="Layer_2-2" data-name="Layer 2">
    <g>
      <g>
        <g id="shadow">
          <g id="shell">
            <g>
              <path class="cls-13" d="m357.03,34.93c-3.32,6.18-8.65,47.15-3.7,70.7,4.97,23.62,18.61,43.14,37.5,36.86,11.89-3.88,23.04-15.95,30.59-27.24,7.52-11.39,11.44-22,8.26-25.21-3.51-3.52-13.09,2.29-21.69,9.34-8.61,6.99-16.23,15.22-16.23,15.22.02.07,8.98-16.04,16.28-34.74,7.24-18.91,12.82-40.42,4.66-56.12-4.66-8.98-16.22-11.12-27.75-8.41-11.54,2.67-23.06,10.19-27.91,19.61Z"/>
              <path class="cls-8" d="m383.79,146.2c-.77,0-1.53-.04-2.28-.12-3.13-.33-6.18-1.33-9.07-2.98-5.2-2.98-9.78-7.98-13.63-14.85-3.47-6.21-6.23-13.85-7.96-22.09-2.98-14.17-2.09-32.77-1.3-42.59,1.12-13.88,3.27-26.13,5.23-29.81,2.52-4.88,6.76-9.46,12.25-13.24,5.22-3.59,11.21-6.24,17.33-7.65,6.37-1.5,12.48-1.55,17.68-.16,5.9,1.58,10.36,5,12.89,9.87,2.09,4.02,3.44,8.6,4,13.61.51,4.47.41,9.43-.29,14.74-1.12,8.5-3.82,18.26-8.25,29.84v.02c-3.14,8.03-6.56,15.52-9.28,21.17,1.68-1.51,3.46-3.05,5.29-4.52,3.44-2.82,8.53-6.66,13.25-8.94,5.39-2.61,9.37-2.68,11.83-.22,2.28,2.3,2.44,6.39.49,12.14-1.6,4.71-4.51,10.32-8.43,16.25h0c-4.27,6.4-9.13,12.22-14.04,16.85-6.01,5.66-12.02,9.49-17.87,11.4-2.63.88-5.26,1.32-7.82,1.32Zm10.23-129.44c-2.87,0-5.78.38-8.5,1.02-11.42,2.64-21.96,10-26.25,18.3l-.02.04c-1.36,2.54-3.53,13.9-4.66,27.84-.77,9.55-1.64,27.6,1.2,41.14,3.39,16.1,10.55,28.66,19.16,33.61,4.67,2.68,9.74,3.14,15.07,1.37h.01c13.53-4.42,24.98-19.82,29.27-26.25,3.62-5.49,6.41-10.84,7.86-15.08,1.53-4.51,1.14-6.52.71-6.95-.53-.53-2.44-.54-6.04,1.2-3.38,1.64-7.62,4.51-12.25,8.31h-.01c-7.66,6.22-14.61,13.53-15.93,14.93-.02.02-.03.03-.05.05-.29.32-.62.51-.92.63-.36.14-.7.18-.99.18-.05,0-.08,0-.12,0l-1.85-.13-1.41-5.97,2.21.62c2.52-4.65,9.44-18.06,15.15-32.68,5.99-15.64,12.99-38.24,4.77-54.04-3.11-5.99-9.65-8.14-16.43-8.14Z"/>
            </g>
            <g>
              <path class="cls-13" d="m301.87,28.82c-3.93,5.93-13.23,39.17-10.62,65.4,2.62,26.2,16.09,61.73,39.86,58.31,12.05-1.69,22.42-11.71,29.18-22.06,6.75-10.41,9.9-21.14,7.14-25.63-6.17-10-39.54,17.63-39.46,17.74.02.09,10.9-16.77,20.34-36.56,9.38-19.94,17.32-42.8,10.14-58.09-9.38-20.08-45.07-17.07-56.58.9Z"/>
              <path class="cls-8" d="m327.92,155.28c-5.48,0-10.67-1.89-15.47-5.65-3.38-2.64-6.55-6.22-9.42-10.64-2.59-3.98-4.94-8.65-6.99-13.86-3.67-9.35-6.27-20.24-7.31-30.66-.62-6.27-.62-13.3,0-20.91.54-6.51,1.51-13.3,2.89-20.15,2.34-11.59,5.68-22.26,8.12-25.97,3.38-5.27,8.75-9.56,15.53-12.41,6.3-2.64,13.5-3.85,20.29-3.4,11.85.79,21.02,6.34,25.17,15.22,1.86,3.95,2.86,8.57,3,13.72.12,4.55-.45,9.67-1.68,15.19-1.99,8.91-5.74,19.16-11.46,31.31h0c-4.76,9.99-9.83,19.11-13.38,25.21.75-.53,1.53-1.07,2.34-1.62,9.86-6.7,17.48-10.24,22.63-10.54,4.25-.24,6.37,1.69,7.4,3.36,1.73,2.8,1.82,7.16.28,12.61-1.37,4.85-4.02,10.43-7.45,15.72-3.83,5.86-8.38,11-13.14,14.86-5.76,4.67-11.75,7.47-17.81,8.33-1.19.17-2.37.26-3.53.26Zm4.73-138.69c-11.88,0-23.4,5.38-28.66,13.59l-.02.03c-1.5,2.26-4.78,11.26-7.39,24.19-2.92,14.45-3.92,28.5-2.82,39.56,1.87,18.69,9.34,41.93,21.81,51.69,3.88,3.04,8.05,4.57,12.41,4.57.91,0,1.83-.07,2.76-.2,13.65-1.92,23.73-15.29,27.43-20.94,3.16-4.87,5.58-9.97,6.82-14.34,1.1-3.88,1.2-7.09.28-8.59-.24-.38-.62-.79-1.65-.93-2.05-.28-7.33.46-19.57,8.52-7.42,4.89-13.6,9.99-14.28,10.59-.81.84-1.82.79-2.13.75l-1.81-.23-.24-1.23-.56-.75.64-1.37c.07-.16.13-.29.3-.48,1.08-1.57,11.26-17.66,20.05-36.09,5.56-11.81,9.19-21.71,11.1-30.26,2.37-10.63,2.05-19.26-.96-25.67-3.35-7.17-10.97-11.66-20.93-12.32-.86-.06-1.72-.09-2.58-.09Zm-2.59,107.39s0,0,0,0c-.08.11-.16.21-.24.3.09-.09.17-.19.25-.3Zm-3.72-3.35c-.14.11-.26.24-.36.37.09-.1.2-.22.36-.37Z"/>
            </g>
            <g>
              <path class="cls-13" d="m95.94,18.76c-14.24-.4-30.14,10.6-34.09,25.37-4.34,16.24,2.01,28.76,9.31,37.7,7.32,8.86,15.59,14.15,15.61,14.04.01-.03-15.25-9.81-18.17-9.5-3.43.46-16.84,6.72-15.64,11.69,1.66,7.36,6.02,16.64,13.08,25.26,7.07,8.56,16.86,16.47,29.68,19.8,23.25,6.14,39.89-4.94,40.57-32.6.74-29.78-18.58-41.48-24.64-45.96-6.46-4.85-11.19-7.69-11.19-7.69.02-.04,17.84,9.5,21.86,8.49,3.12-.77,10.11-11.43,9.57-15.57-1.43-11.08-19.55-30.63-35.96-31.03Z"/>
              <path class="cls-8" d="m107.53,147.3c-3.9,0-8.07-.58-12.45-1.73-6.28-1.63-12.27-4.43-17.8-8.32-4.75-3.33-9.18-7.48-13.18-12.32-6.72-8.2-11.67-17.78-13.6-26.3-.27-1.13-.28-2.9,1.16-5,1.89-2.77,5.6-5.1,8.37-6.58,3.13-1.66,6.44-2.94,8.24-3.19h.07c.39-.05.81-.03,1.29.05-.13-.16-.27-.32-.4-.48h0c-4.56-5.6-7.66-11.14-9.48-16.97-2.31-7.41-2.42-15.14-.32-22.99,2.03-7.58,7.05-14.6,14.14-19.76,3.36-2.44,6.99-4.33,10.8-5.63,3.93-1.33,7.86-1.96,11.65-1.85,4.27.11,8.79,1.36,13.43,3.74,4.03,2.07,8.13,4.99,11.83,8.45,7.32,6.84,12.35,14.9,13.14,21.04.46,3.54-2.49,8.68-3.78,10.72-1.14,1.8-2.37,3.43-3.55,4.71-1.52,1.65-2.87,2.6-4.13,2.91-.63.16-1.45.24-2.75.03,3.02,2.54,6.4,5.86,9.46,10.2,6.4,9.09,9.48,20.04,9.17,32.54-.35,14.19-4.84,24.93-12.98,31.04-5.01,3.76-11.22,5.67-18.31,5.67Zm-38.74-58.4c-1,.19-3.5,1.08-6.39,2.62-3.17,1.69-5.56,3.5-6.57,4.97-.38.55-.43.88-.41.98v.04c1.76,7.78,6.35,16.61,12.58,24.21,8.08,9.79,17.63,16.17,28.37,18.96,10.81,2.85,19.95,1.79,26.44-3.09,6.86-5.15,10.66-14.54,10.97-27.13.66-26.51-15.39-37.98-22.25-42.88-.49-.35-.96-.69-1.37-.99h-.02c-5.52-4.16-9.76-6.82-10.93-7.53-.65-.4-1.05-.95-1.21-1.65l-.46-2.12,2.03-.78c1.05-.4,1.87.01,2.22.19.11.06.28.14.49.25,15.46,7.93,18.95,8,19.43,7.95.64-.29,2.64-2.19,4.8-5.66,2.3-3.71,2.99-6.34,2.89-7.13-.63-4.88-5.28-12.11-11.58-18-7.18-6.72-15.18-10.66-21.93-10.83h0c-13.61-.38-28.07,10.38-31.58,23.5-3.34,12.48-.45,24.07,8.82,35.44,5.07,6.14,10.67,10.55,13.34,12.44,1.98,1.24,2.04,1.31,2.3,1.64l.87,1.09-.43,1.21-.36,1.39-1.51.34c-1.17.26-1.89-.24-3.46-1.34-.02-.01-.04-.03-.05-.04-1.45-.91-3.75-2.33-6.21-3.75-6.42-3.71-8.39-4.24-8.8-4.31Zm52.96-25.99s0,0,0,0c0,0,0,0,0,0Z"/>
            </g>
            <g>
              <path class="cls-13" d="m129.23,27.31c-4.06,4.77-3.61,31.89-2.01,53.57,1.64,21.55,10.64,61.26,14.06,64.33,3.46,3.03,24.27,10.54,27.12,6.1,1.84-2.81,3.01-44.44,3.02-44.46,0,0,1.32,41.59,3.08,45.13,2.69,5.52,23.72,1.34,26.44-.33,2.68-1.5,9.88-28.43,12.44-54.06,2.53-25.58,5.1-63.24,1.52-68.4-3.56-5.16-38.46-9.24-41.11-2.87-1.62,3.89-3.33,39.55-3.32,39.53,0,0-.83-35.82-2.36-40.43-1.48-4.45-34.82-2.8-38.86,1.88Z"/>
              <path class="cls-8" d="m183.21,157.27c-2.27,0-4.48-.2-6.32-.73-2.3-.67-3.87-1.83-4.66-3.44-.19-.38-.47-.95-.81-3.28-.31,1.8-.61,2.42-.9,2.87-.84,1.31-2.29,2.11-4.31,2.4-4.37.62-11.12-1.29-14.75-2.49-4.13-1.36-9.7-3.61-11.85-5.48l-.02-.02c-.88-.79-2.05-2.52-4.14-9.47-1.36-4.52-2.86-10.43-4.34-17.1-3.26-14.69-5.65-29.43-6.41-39.45-.9-12.27-1.3-24.11-1.12-33.36.31-16.19,2.28-20.33,3.73-22.03h.01c1.16-1.35,3.34-2.39,6.86-3.26,2.73-.68,6.22-1.24,10.09-1.61,7.82-.76,15.85-.66,20.46.25,2.1.42,4.98,1.24,5.76,3.58.11.32.28.84.49,2.32.2-.96.35-1.33.46-1.59,1.04-2.5,4.15-3.99,9.51-4.55,5.47-.58,13.41-.16,20.73,1.08,3.56.61,6.75,1.37,9.22,2.22,3.16,1.08,5.09,2.24,6.07,3.65,1.35,1.94,2.8,6.89,1.98,28.07-.44,11.5-1.56,26.81-3.06,42.01-1.16,11.58-3.43,24.86-6.24,36.42-1.23,5.05-2.48,9.46-3.62,12.74-1.66,4.78-2.7,6.17-3.82,6.82-1.83,1.1-6.92,2.22-10.92,2.8-2.38.35-5.28.65-8.09.65Zm-6.44-6.39c.09.16.48.48,1.42.77,2.45.75,6.89.75,12.17,0,4.57-.65,8.1-1.63,9.09-2.08.24-.36.96-1.64,2.2-5.38,1.08-3.29,2.25-7.56,3.39-12.35,1.54-6.49,4.33-19.6,5.83-34.5,1.49-15.09,2.6-30.29,3.04-41.69.27-7.02.3-12.76.1-17.06-.31-6.52-1.09-7.83-1.18-7.96-.37-.47-2.88-2.01-10.01-3.41-5.67-1.11-12.21-1.72-17.48-1.62-2.67.05-4.97.28-6.66.67-1.94.45-2.49.96-2.57,1.05-.17.48-.93,3.47-2.05,20.15-.6,8.87-1.02,17.48-1.06,18.39l.09,4.05-3.72-1.8c-.33-.16-1.36-.77-1.42-2.22h0c0-.09-.21-9.05-.61-18.45-.63-14.94-1.22-19.48-1.52-20.85-.49-.24-1.99-.78-5.76-1.08-3.28-.26-7.42-.25-11.66,0-4.27.26-8.37.78-11.55,1.45-4.64.98-5.63,1.92-5.68,1.97-.39.47-2.22,3.5-2.52,18.84-.17,9.1.22,20.78,1.11,32.89.73,9.59,3.03,23.83,6.16,38.06,1.42,6.46,2.87,12.24,4.18,16.71,1.82,6.2,2.74,7.64,2.93,7.89,1.19.97,5.99,3.25,11.91,5.02,7.33,2.19,10.56,1.87,11.33,1.52.28-.99.97-4.95,1.75-20.62.22-4.47.56-11.91.87-21.99.03-.81.04-1.22.42-1.81l4.39-6.81.26,8.1c0,.1.33,10.24.86,20.78.97,19.22,1.75,22.72,1.98,23.34Zm0,.02s0,0,0,0c0,0,0,0,0,0Zm22.59-1.22h0s0,0,0,0Zm-26.39-83.95s0,.06,0,.06v.04s0-.07,0-.1Z"/>
            </g>
            <g>
              <path class="cls-13" d="m253.55,16.37c-13.88.23-27.14,13.07-35.95,30.74-8.84,17.7-13.22,40.21-9.98,60.56,5.25,32.55,27.19,54.31,50.17,51.9,18.03-1.91,30.26-15.36,37.41-28.97,7.13-13.68,9.17-27.52,6.49-31.74-4.26-6.54-40.14-.09-40.12-.23-.01.14,34.73-6.73,38.98-12.35,3.14-4.04-2.55-24.61-6.47-28.49-4.68-4.58-30.87-.28-30.86-.31,0,.07,34.88-4.67,39.15-10.02,3.19-3.72-22.99-31.39-48.82-31.09Z"/>
              <path class="cls-8" d="m254.3,162.26c-10.72,0-21.26-4.8-30.05-13.78-9.73-9.94-16.52-24.3-19.12-40.43-1.6-10.02-1.43-21.12.46-32.1,1.81-10.47,5.18-20.84,9.75-29.98,4.62-9.27,10.39-17.11,16.66-22.67,3.32-2.94,6.78-5.24,10.27-6.82,3.73-1.69,7.51-2.58,11.23-2.64h.01c5.51-.07,11.35,1.06,17.37,3.34,5.12,1.94,10.27,4.68,15.29,8.13,8.37,5.75,15.85,13.27,18.19,18.29,1.07,2.29,1.05,4.13-.05,5.46-1.36,1.68-4.17,3.11-9.1,4.63-.68.21-1.41.42-2.17.64,1.42.51,2.24,1.1,2.8,1.65h.01c2.68,2.67,5.21,9.95,6.55,15.38.84,3.39,1.37,6.55,1.52,9.15.21,3.49-.23,5.81-1.38,7.3-.97,1.28-3.16,3.11-10.37,5.64,1.13.05,2.18.13,3.13.25,4.46.53,7.16,1.73,8.49,3.76l.02.03c3.54,5.56.73,20.61-6.38,34.26-4.18,7.97-9.3,14.57-15.22,19.62-7.21,6.16-15.33,9.75-24.16,10.69-1.25.13-2.51.2-3.76.2Zm-.71-143.37c-5.99.1-12.3,2.94-18.24,8.2-5.79,5.13-11.15,12.44-15.49,21.14-9.09,18.2-12.73,40.27-9.74,59.03,2.44,15.1,8.74,28.49,17.75,37.69,7.81,7.98,17.1,12.26,26.46,12.26,1.07,0,2.14-.06,3.21-.17,19.28-2.04,30.48-18.19,35.44-27.63,3.2-6.13,5.57-12.78,6.68-18.71,1.03-5.51.71-9.23-.07-10.49-.12-.17-2-2.41-15.94-1.61-8.24.48-16.95,1.8-20.23,2.3-.47.07-.83.13-1.08.16-.12.02-.25.04-.39.05-.46.05-.73.03-1.06-.07-.12-.03-.23-.07-.35-.13l-1.61-.61.05-.69-.03-.03.13-1.24,2.54.24,1.7-1.8s-.05-.05-.08-.07c-.29-.25-.6-.41-.91-.51-.37-.11-.69-.12-.87-.11-.03,0-.05,0-.08,0,0,0,.02,0,.03,0-.03,0-.06,0-.08,0,.71-.1,9.15-1.74,18.31-4.16,16.01-4.23,18.56-6.74,18.9-7.2l.02-.03s.55-.83.33-4.09c-.15-2.3-.64-5.14-1.41-8.21-1.61-6.42-3.88-11.56-5.16-12.83-.23-.22-2.37-1.89-13.77-1.24-2.35.13-5.92.42-10.55,1.01-1.26.19-2.24.33-2.88.42-.46.06-.86.12-1.16.16-.56.07-1.02.13-1.6-.09-.06-.02-.11-.04-.16-.07l-1.69-.7.88-7.76,2.88,3.45c1.04-.15,2.03-.28,2.98-.41,3.47-.52,8.68-1.38,14.1-2.47,5.13-1.04,9.38-2.08,12.62-3.1,3.8-1.19,5.4-2.09,6.04-2.57-.29-.81-1.25-2.61-3.74-5.46-2.83-3.24-6.66-6.71-10.78-9.75-6.23-4.6-18.65-12.29-31.9-12.13Z"/>
            </g>
          </g>
          <g id="shockers">
            <g>
              <path class="cls-13" d="m444.41,215.11c10.95-1.73,23.43-12.47,27.01-24.93,7.93-27.37-19.16-34.46-19.19-34.52,0,.01,12.39,3.79,14.79,2.82,2.79-1.13,14.17-9.89,13.41-13.73-2.21-11.05-13.44-25.22-35.27-22.62-19.8,2.37-33.48,14.15-33.47,33.89,0,21.25,15.62,27.28,20.43,29.44,5.16,2.33,11.97,4.27,11.97,4.27,0,.02-16.05-4.55-18.05-3.28-2.32,1.49-10.33,9.08-9.82,11.91,1.35,7.55,15.6,18.76,28.19,16.75Z"/>
              <path class="cls-8" d="m441.35,217.87c-2.31,0-4.7-.35-7.15-1.04-3.22-.91-6.5-2.43-9.49-4.4-5.97-3.93-10.18-9.15-10.98-13.62-.26-1.45.02-3.73,4.47-8.61,2.08-2.28,4.72-4.69,6.28-5.75-2.17-1.32-4.52-3.04-6.73-5.33-5.7-5.92-8.59-13.69-8.6-23.1,0-5.15.88-9.94,2.63-14.24,1.7-4.18,4.2-7.89,7.45-11.03,6.21-6.01,15.07-9.86,25.62-11.12,13.2-1.57,21.89,2.79,26.86,6.72,5.74,4.54,9.82,11.07,11.19,17.91.33,1.63-.27,3.46-1.81,5.59-1.03,1.42-2.49,2.98-4.34,4.66-3.08,2.8-6.94,5.57-8.79,6.32-.3.12-.66.23-1.13.29.13.12.25.24.38.36,3.47,3.33,5.87,7.23,7.14,11.6,1.54,5.33,1.37,11.32-.51,17.82-1.82,6.35-5.9,12.62-11.47,17.65-5.44,4.91-11.67,8.13-17.56,9.06h0c-1.13.18-2.29.27-3.46.27Zm-22.61-19.8c1.14,5.41,11.86,14.76,22.54,14.76.91,0,1.83-.07,2.74-.21h0c10.41-1.65,21.84-12.24,24.97-23.13,6.61-22.78-13.32-30.13-17.38-31.37-.24-.07-.78-.24-1.25-.75-.14-.16-.28-.35-.39-.57l4.47-2.35c-.1-.18-.21-.33-.32-.46-.33-.37-.71-.57-.96-.67-.05-.02-.1-.04-.13-.05h.03s-.03,0-.04,0c.32.1,3.13.95,6.14,1.68,5.16,1.26,6.69,1.2,7,1.16.92-.42,3.81-2.33,6.8-4.98,3.89-3.45,4.9-5.43,4.98-5.96-1.14-5.57-4.63-11.12-9.35-14.86-6.05-4.79-14.05-6.75-23.13-5.67-19.57,2.34-31.25,14.07-31.25,31.38,0,18.77,12.84,24.44,18.32,26.86.22.1.43.19.63.28,3.7,1.67,8.3,3.14,10.43,3.79l15.22-11.53-12.74,15.89c-.1.12-.3.34-.6.54h0c-.47.31-.92.4-1.32.4,0,0-.02,0-.03,0-.23,0-.49-.03-.76-.11l-.24-.06c-10.23-2.8-14.74-3.41-15.96-3.33-.92.66-2.85,2.34-4.82,4.43-2.64,2.81-3.46,4.41-3.6,4.89Zm47.48-41.98h0,0Z"/>
            </g>
            <g>
              <path class="cls-13" d="m412.39,176.37s14.4-4.93,14.12-27.69c-.33-28.86-48.64-26.67-56.23-20.27-7.69,6.32-17.01,80.12-13.52,83.44,3.52,3.37,27.15,6.36,30.91,2.42,3.77-3.9,1.39-28.94,1.38-28.95.02.02,6.2,27.05,10.79,29.77,3.38,2.03,26.64-3.02,29.5-7.4,3.11-4.6-16.89-31.23-16.95-31.31Zm-17.85-21.43c-.92,6.25-3.73,10.12-3.73,10.12.86-6.72,1.72-13.44,2.59-20.16,1.3-10.07,2.07,3.72,1.14,10.04Z"/>
              <path class="cls-8" d="m378.58,218.66c-2.06,0-4.32-.12-6.7-.36-2.24-.22-13.57-1.49-16.86-4.64-.86-.81-1.26-2.06-1.44-4.43-.12-1.56-.13-3.66-.04-6.24.38-10.64,2.42-28.09,5.09-43.44,1.44-8.29,2.99-15.51,4.48-20.88,2.43-8.76,4.25-11.13,5.56-12.21,3.62-3.04,12.13-4.35,18.89-4.57,5.63-.18,16.5.17,26.01,4.52,10.01,4.59,15.36,12.27,15.48,22.23.07,5.43-.67,10.37-2.19,14.68-1.24,3.53-3.01,6.64-5.26,9.24-1.92,2.24-3.87,3.73-5.4,4.69,1.92,2.66,5.1,7.14,8.11,11.89,2.71,4.26,4.75,7.88,6.05,10.74,2.03,4.45,2.37,7.29,1.1,9.19-.99,1.51-3.06,2.86-6.51,4.24-2.65,1.06-5.96,2.08-9.58,2.93-3.44.81-6.87,1.4-9.65,1.67-4.62.44-6.26-.12-7.16-.66-1.52-.9-3.45-3.04-6.36-11.44-.39,6.78-1.59,9.05-2.71,10.21-1.36,1.42-3.76,2.22-7.54,2.52-1.04.08-2.17.12-3.37.12Zm-19.8-8.46c.48.29,1.67.86,4.33,1.53,2.62.66,5.86,1.2,9.13,1.53,3.4.34,6.65.43,9.15.25,3.65-.27,4.46-.99,4.47-1h0c.06-.08,1.61-1.96,1.4-13.97-.12-6.74-.71-12.89-.72-12.95.01.13.04.25.07.38,0-.02,0-.03,0-.04,0,.04.02.09.04.14.12.38.33.73.62,1.02l3.49-3.65c.1.09.19.19.27.28.36.44.46.86.55,1.25,1.21,5.08,2.58,10.21,3.88,14.45,3.4,11.14,5.29,13.15,5.65,13.45.25.07,1.44.3,4.74-.06,2.59-.28,5.73-.85,8.84-1.61,7.99-1.93,11.74-4,12.47-4.82.01-.37-.09-1.81-1.93-5.55-1.31-2.67-3.24-6-5.74-9.88-4.24-6.58-8.61-12.44-9.09-13.08h-.01s-.36-.5-.36-.5l-.47-2.68,2-.72c.13-.05,3.16-1.17,6.22-4.72,4.18-4.86,6.33-11.97,6.22-20.56-.09-7.98-4.31-13.93-12.53-17.7-8.57-3.93-18.55-4.23-23.74-4.07-8.04.26-14.04,1.9-15.81,3.39l-.02.02c-.33.27-2.12,2.19-4.84,13.23-1.73,7.01-3.45,16.13-4.97,26.36-1.41,9.43-2.5,18.87-3.09,26.58-.74,9.68-.37,12.82-.2,13.68Zm42.35,2.71h0s0,0,0,0Zm-.1-.05h0Zm-42.18-2.38h0Zm33.44-37.06l-4.43-8.57.52-.74c.83-6.48,1.67-13.05,2.51-19.53.16-1.27.33-2.23.49-2.92.16-.68.5-2.09,1.88-2.65.87-.36,1.87-.22,2.62.37.9.71,1.18,1.79,1.36,3.41.11,1.01.18,2.32.21,3.8.06,3.24-.1,6.5-.43,8.73h0c-.8,5.43-2.91,9.24-3.79,10.65l-.95,7.47Z"/>
            </g>
            <g>
              <path class="cls-13" d="m333.19,219.83c-21.28,1.39-42.03-32.1-38.16-60.42,3.15-22.66,20.89-37.86,40.11-37.73,30.18.24,40.46,31.82,36.04,38.09-3.52,5.06-32.4,3.37-32.4,3.35,0,.02,28.02,2.05,31.36,5.45,2.48,2.53-2.28,17.23-5.38,20.18-3.73,3.56-24.36,2.41-24.36,2.4,0,0,17.82,1.52,21.12,4.84,2.39,2.42-8.51,22.57-28.32,23.84Z"/>
              <path class="cls-8" d="m331.9,222.4c-3.78,0-7.61-.96-11.4-2.85-3.94-1.97-7.73-4.89-11.28-8.69-5.78-6.21-10.63-14.57-13.65-23.55-3.21-9.55-4.26-19.32-3.04-28.24.81-5.81,2.54-11.29,5.15-16.3,2.51-4.81,5.76-9.06,9.67-12.63,7.81-7.15,17.69-11.05,27.81-10.98,8.49.07,16.12,2.46,22.67,7.1,6.72,4.76,10.71,10.79,12.88,15.01,4.12,8.03,5.16,16.24,2.54,19.96-.78,1.12-2.25,2.35-6.12,3.27,2.93.83,4.12,1.6,4.81,2.3.99,1.01,1.45,2.54,1.41,4.68-.04,2.7-.88,6.53-2.28,10.52-.84,2.38-2.56,6.67-4.56,8.59-.81.77-2.14,1.62-5.16,2.26.99.51,1.56.97,1.96,1.37,1.3,1.31,1.4,3.47.28,6.4-1.28,3.38-4.55,8.61-9.86,13.17-4.17,3.58-11.1,7.97-20.37,8.57h0c-.49.03-.97.05-1.46.05Zm3-98.2c-18.5,0-34.55,15.24-37.37,35.56-2.18,16,4.14,35.6,15.38,47.66,6,6.44,12.71,9.93,19.02,9.93.37,0,.73-.01,1.1-.04h0c10.69-.69,17.85-7.26,21.17-11.12,3.53-4.1,4.84-7.45,5.07-8.73-.86-.49-3.2-1.49-9.22-2.52-3.96-.68-7.81-1.08-9.76-1.27-.09,0-.17-.02-.26-.03-.14-.02-.19-.03-.22-.04l-1.33-.31-.47-1.28h0c-.12-.32-.16-.63-.16-.86v-14.34l4.32,11.89c1.96.08,5.49.17,9.24.05,9.87-.31,11.51-1.77,11.58-1.83.88-.84,2.54-4.08,3.88-8.42,1.44-4.68,1.52-7.43,1.33-8.24-.61-.37-3.36-1.61-14.14-3.03-3.09-.41-8.22-1.01-15.13-1.57l-.29-.02c-.05,0-.11,0-.16-.02-.04,0-.06,0-.08,0l-1.53-.21-.51-1.46h0s-.03-.08-.04-.12l4.81-1.54c-.02-.06-.04-.12-.07-.18,0,0,0,0,0,0,0,0,0,0,0,0-.32-.73-.97-1.27-1.72-1.45-.11-.03-.23-.05-.34-.06,0,0,.02,0,.03,0-.02,0-.04,0-.06,0,.06,0,7.17.43,14.81.21,13.48-.39,15.24-2.41,15.3-2.5.92-1.3,1.01-7.13-2.9-14.75-2.96-5.77-11.92-19.21-31.09-19.37-.07,0-.15,0-.22,0Z"/>
            </g>
            <g>
              <path class="cls-13" d="m255.79,128.41c-7.09,7.7-3.83,74.7,3.48,82.91,3.37,3.76,21.65,7.72,25.23,5.15,3.81-2.7-2.39-26.73-2.4-26.73.01,0,5.74,23.5,9,26.07,3.55,2.81,28.27-1.94,30.39-6.34,2.53-5.07-21.11-35.04-21.08-40.4,0-4.16,23.02-34.78,19.14-39.62-4.24-5.24-26.2-7.52-29.25-5.81-3.72,2.07-8.84,27.84-8.83,27.85-.01,0,5.42-27.25,2.05-28.43s-24.36,1.68-27.73,5.36Z"/>
              <path class="cls-8" d="m280.29,219.81c-.27,0-.55,0-.85-.01-2.36-.07-5.18-.44-8.16-1.06-2.53-.53-11.01-2.51-13.9-5.74-1.15-1.29-2.16-3.44-3.08-6.58-.78-2.66-1.51-6.04-2.16-10.04-1.21-7.44-2.11-16.89-2.55-26.6-.44-9.8-.37-19.22.19-26.52.91-11.81,2.8-15.11,4.14-16.57,1.13-1.23,3.16-2.26,6.4-3.26,2.45-.75,5.53-1.45,8.91-2.02,1.19-.2,11.75-1.93,15.12-.75,1.41.49,2.12,1.71,2.47,3.22.84-1.44,1.57-2.08,2.25-2.46.74-.42,2.24-.96,6.55-.87,2.76.06,6.04.37,9.26.88,3.6.57,6.91,1.35,9.56,2.26,3.45,1.18,5.77,2.54,7.08,4.16h0c1.85,2.32,1.16,6.12-2.39,13.13-2.53,5-6.16,10.91-9.37,16.12-1.81,2.95-3.52,5.73-4.79,7.95-1.56,2.74-1.94,3.74-2.03,4.07.07.36.45,1.66,2.63,5.41,1.69,2.9,3.93,6.41,6.3,10.12,3.19,4.98,6.48,10.13,8.85,14.49,3.27,6.01,4.13,9.22,3.04,11.43-.75,1.55-2.54,2.87-5.63,4.15-2.29.95-5.26,1.86-8.58,2.62-3.97.91-8.02,1.54-11.42,1.75-5.76.37-7.66-.57-8.59-1.31-.48-.38-1.03-.97-1.71-2.15-.38,1.34-.99,2.28-1.86,2.89-1.22.87-3.04,1.28-5.67,1.28Zm.61-94.51c-2.26,0-6.25.32-10.98,1.12-7.72,1.32-11.56,2.93-12.26,3.69h0c-.32.35-1.98,2.66-2.82,13.54-.55,7.11-.61,16.31-.18,25.91.43,9.52,1.31,18.76,2.49,26.02,1.75,10.83,3.52,13.5,4.02,14.06.95,1.06,5.11,2.87,10.95,4.11,2.61.56,5.18.91,7.23.99,2.24.09,3.23-.15,3.57-.27.22-.59.86-3.27-.76-12.54-.75-4.29-1.68-8.27-2.16-10.23l-13.55-4.49h15.66c.26,0,.53.04.79.13h0c.64.21,1.03.58,1.29.97.17.25.3.54.39.87v.04c.03.08.05.15.07.21.05.21.13.5.22.87,1.33,5.25,2.47,9.2,3.21,11.65,2.86,9.46,4.28,11.48,4.59,11.84.25.1,1.42.45,4.71.28,2.59-.14,5.79-.57,9.01-1.22,3.26-.66,6.37-1.5,8.74-2.38,2.79-1.03,3.76-1.8,4.05-2.07-.02-.28-.13-.98-.69-2.38-.55-1.37-1.42-3.13-2.59-5.23-2.26-4.05-5.31-8.81-8.25-13.42-6.93-10.83-9.75-15.52-9.74-18.32,0-2.09,1.97-5.47,7.58-14.6,2.93-4.77,6.26-10.18,8.67-14.79,3.28-6.28,3.38-8.3,3.34-8.77-1.2-1.27-5.24-3.13-12.97-4.4-6.62-1.09-11.69-1.01-12.92-.66-.39.45-1.98,2.81-4.73,13.43-1.69,6.56-2.89,12.61-2.9,12.66,0,0,0-.02,0-.03,0,0,0,.01,0,.02.13-.71-.07-1.48-.54-2.05,0,0,0,0,0,0l-1.94,1.62-1.95,1.61c-.34-.41-.49-.83-.55-1.21h0c-.04-.23-.06-.37.01-.83,0-.05.02-.11.02-.15.03-.19.08-.44.14-.75.82-4.35,1.55-8.73,2.05-12.41,1.11-8.1.95-11.25.77-12.39-.29-.02-.65-.03-1.07-.03Zm-1.23,65.12h0s0,0,0,0Zm23.27-21.39h0s0,0,0,0Z"/>
            </g>
            <g>
              <path class="cls-13" d="m230.37,122.64c-22.15-1.14-41.75,35.15-36.39,63.21,4.25,22.48,21.46,36.81,40.01,35.73,31.78-1.91,36.73-41.81,34.97-49.22-1.48-6.15-32.87-1.71-32.86-1.73,0,0-4.03,21.09-3.85,18.36.84-12.93.77-24.25-.66-35.54-.54-4.24,2.28,14.22,5.06,14.81,2.78.59,29.13,1.27,31.24-2.41,1.86-3.16-9.63-41.72-37.53-43.21Z"/>
              <path class="cls-8" d="m232.05,224.15c-9.04,0-17.88-3.4-25.09-9.71-3.86-3.37-7.14-7.46-9.75-12.15-2.7-4.85-4.62-10.22-5.71-15.98-1.72-8.97-1.09-19.03,1.82-29.07,2.75-9.51,7.43-18.38,13.18-24.98,3.44-3.95,7.16-7,11.05-9.07,4.25-2.26,8.61-3.3,12.94-3.07h0c7.49.4,14.46,3.29,20.7,8.59,4.86,4.12,9.3,9.8,12.86,16.43,2.31,4.3,4.23,8.99,5.42,13.21,1.86,6.58.95,8.17.59,8.77-.28.48-.67.95-1.33,1.4,1.23.7,2.3,1.72,2.67,3.25.77,3.21.37,9.58-1,15.84-1.27,5.84-3.94,14.35-9.46,21.79-3.12,4.2-6.8,7.57-10.93,10-4.71,2.77-10.06,4.35-15.88,4.7-.7.04-1.4.06-2.1.06Zm-2.67-99.01c-6.44,0-13.18,3.68-19.07,10.44-11.28,12.95-16.98,33.43-13.85,49.79,3.89,20.55,19.61,34.71,37.38,33.68,9.48-.57,17.24-4.83,23.06-12.67,9.18-12.37,10.46-29.27,9.63-33.29-.23-.18-1.25-.84-4.62-1.21-2.55-.28-5.88-.33-9.89-.16-5.26.22-10.46.78-13.79,1.18-.42,2.18-1.15,5.96-1.85,9.39-.45,2.24-.81,4-1.09,5.25-.16.75-.29,1.31-.39,1.71-.06.26-.12.45-.17.6-.48,1.49-1.75,2.01-2.8,1.88-.82-.11-2.34-.85-2.21-2.92.89-13.74.69-24.55-.65-35.06-.03-.25-.05-.42-.06-.55-.18-1.84,1.15-2.74,2.1-2.9,1.14-.19,2.5.42,2.89,1.96.02.07.04.18.07.32.05.21.11.52.19.91.32,1.56.91,4.47,1.63,7.2.88,3.29,1.51,4.64,1.81,5.16,1.81.19,7.31.45,13.79.3,9.87-.23,13.13-1.22,14.07-1.64-.05-1.28-.63-4.57-2.49-9.41-2.29-6-5.6-11.85-9.31-16.48-6.78-8.46-14.7-12.99-23.54-13.46-.29-.01-.57-.02-.86-.02Zm6.72,48.01h0c.11,0,.22,0,.32-.02-.11.01-.22.02-.32.02Zm-2.05-20.46s0,0,0,0c0,0,0,0,0,0Z"/>
            </g>
            <g>
              <path class="cls-13" d="m35.99,213.98c10.95.81,23.28-7.26,26.71-19.34,7.62-26.69-19.5-38.79-19.54-38.75,0,0,12.43,6,14.82,5.46,2.78-.63,14.07-7.66,13.27-11.79-2.3-11.85-13.58-28.02-35.41-28.42-19.8-.37-33.48,9.13-33.31,28.21.19,20.53,15.94,29.42,20.78,32.54,5.2,3.32,12.04,6.65,12.04,6.65s-16.13-7.75-18.12-6.87c-2.31,1.03-10.26,6.82-9.72,9.66,1.44,7.55,15.9,21.71,28.48,22.66Z"/>
              <path class="cls-8" d="m37.52,216.57c-.58,0-1.15-.02-1.72-.06h0c-3.31-.25-6.84-1.3-10.5-3.14-3.17-1.59-6.41-3.77-9.37-6.32-5.89-5.05-10.07-10.89-10.9-15.25-.43-2.26,1.03-4.76,4.61-7.89,1.91-1.67,4.32-3.38,5.94-4.25C8.84,174.46.15,165.11,0,149.37c-.04-4.46.64-8.57,2.01-12.21,1.35-3.57,3.38-6.72,6.03-9.34,6.31-6.25,15.93-9.43,27.84-9.21,10.41.19,19.66,3.87,26.73,10.62,5.67,5.41,9.72,12.65,11.12,19.85.56,2.88-1.49,6.05-6.24,9.69-3.18,2.44-7.03,4.61-8.96,5.04-.16.04-.34.07-.54.09,1.21,1.34,2.37,2.83,3.43,4.45,2.4,3.67,3.98,7.63,4.7,11.76.85,4.84.51,9.96-.99,15.23-1.78,6.28-5.87,11.92-11.51,15.88-2.67,1.88-5.56,3.29-8.59,4.21-2.52.76-5.04,1.15-7.5,1.15Zm-1.35-5.1c10.33.76,21.14-7.09,24.09-17.51,6.31-22.1-13.32-33.34-17.33-35.37-.22-.11-.45-.21-.69-.32-.07-.03-.12-.06-.14-.07.06.03.11.05.17.07-.02-.01-.04-.02-.04-.02.06.02.11.04.17.06.81.25,1.72.07,2.39-.49l-3.4-3.73s.08-.08.13-.11h0c.11-.1.24-.19.38-.27.59-.34,1.4-.49,2.29-.12.05.02.13.06.24.1.14.07.38.18.71.34.02,0,.03.02.05.03,7.84,3.67,11.43,4.73,12.34,4.8.9-.27,3.71-1.71,6.55-3.84,3.74-2.79,4.65-4.58,4.68-5.01-1.75-8.95-10.88-25.93-32.97-26.34-10.51-.2-18.87,2.48-24.19,7.74-4.41,4.37-6.62,10.4-6.55,17.91.17,18.12,13.22,26.39,18.79,29.92.3.19.57.36.82.52,4.81,3.07,11.08,6.16,11.78,6.5,1.07.52,1.63,1.69,1.36,2.84l-.45,1.96h-2.01c-.38,0-.75-.09-1.1-.25-.39-.19-3.89-1.86-7.67-3.49-5.9-2.54-8.02-3.07-8.67-3.17-.9.49-2.66,1.64-4.44,3.14-2.42,2.03-3.26,3.31-3.43,3.76.61,2.69,3.65,7.42,9.19,12.17,5.67,4.86,11.85,7.87,16.96,8.25h0Zm21.24-52.58s0,0,0,0c0,0,0,0,0,0Z"/>
            </g>
            <g>
              <path class="cls-13" d="m128.13,209.3c3.18-3.41,3.05-23.25,1.93-39-1.09-15.77-8.31-43.81-11.23-45.55-2.89-1.76-20.41-5.09-22.74-1.86-1.53,2.12-1.73,35.85-1.72,35.85s-1.85-33.56-3.38-35.88c-2.34-3.54-19.82.46-22.01,1.58-2.21,1.14-7.41,19.41-8.63,36.48-1.24,17.1-1.94,42.1,1.02,45.64,2.96,3.54,30.11,7.26,32.07,2.89,1.18-2.63,2.25-22.41,2.25-22.42s.93,19.92,2.18,23.14c1.21,3.13,27.05,2.57,30.25-.87Z"/>
              <path class="cls-8" d="m110.03,214.75c-3.72,0-7.13-.24-9.49-.69-1.95-.37-4.28-1.05-5.02-2.98-.01-.03-.03-.07-.04-.1-1.18,1.88-3.74,2.45-5.62,2.71-4.75.66-11.89,0-16.98-.84-3.05-.5-5.81-1.12-8-1.8-3.69-1.14-4.87-2.18-5.44-2.86-1.29-1.54-2.61-5.04-2.67-19.34-.04-7.96.36-18.21,1.07-28.1.56-7.77,2.02-16.75,4.01-24.65.87-3.45,1.79-6.49,2.66-8.77,1.35-3.53,2.3-4.6,3.31-5.12h.01c1.63-.84,7.12-2.14,11.75-2.8,2.94-.42,5.44-.57,7.43-.47,3.08.16,5.07.99,6.09,2.53.13.2.28.42.45.92.16-.46.32-.74.49-.98,1.05-1.46,3.6-3.25,13.53-1.97,4.66.6,10.46,1.87,12.56,3.15,1.1.66,2.19,2.1,3.91,6.96,1.12,3.17,2.35,7.36,3.54,12.11,2.62,10.45,4.49,21.1,5,28.48.63,8.88.86,17.54.65,24.38-.37,11.93-1.93,15.09-3.25,16.51-1,1.07-2.78,1.86-5.62,2.47-2.12.46-4.84.82-7.85,1.03-2.17.16-4.37.23-6.48.23Zm-9.94-6.01c.52.19,1.74.51,4.26.74,2.5.22,5.62.28,8.79.17,3.22-.12,6.32-.41,8.74-.82,3.32-.57,4.28-1.17,4.42-1.27.18-.23,1.56-2.36,1.89-13.29.2-6.66-.03-15.11-.64-23.79-.47-6.82-2.2-16.77-4.62-26.62-2.58-10.52-4.73-15.92-5.56-17.04-1.03-.5-4.79-1.58-9.67-2.27-5.83-.83-8.58-.45-9.46-.14-.23,1.11-.72,4.95-1.07,17.77-.22,8.16-.27,16.11-.27,16.52,0-.08,0-.16-.01-.24.02.62,0,.72-.1,1.03l-1.44,4.6-2.97-3.8c-.46-.59-.53-1.13-.53-1.66,0,.07,0,.14,0,.2-.02-.41-.46-8.3-1.08-16.61-.99-13.18-1.64-16.87-1.91-17.89-.76-.31-3.39-.71-9.26.18-4.35.66-8.06,1.66-9.2,2.08-.68,1.03-2.22,4.86-3.91,11.81-1.05,4.32-2.91,13.01-3.61,22.72-.7,9.6-1.08,19.57-1.06,27.35.04,13.41,1.26,16.08,1.49,16.47.18.14,1.2.84,4.66,1.74,2.64.69,5.94,1.29,9.29,1.7,3.46.42,6.78.6,9.37.52,3-.1,4.21-.52,4.59-.71.49-1.82,1.29-9.38,1.95-21.14.02-.33.06-1.09.73-1.77l1.16-1.18,1.55.6c.74.29,1.55,1.03,1.62,2.27v.12c.11,2.19.35,6.54.68,10.98.52,7.01.97,9.7,1.19,10.7Zm.14.51s0,0,0,0c0,0,0,0,0,0Zm26.04-1.68s0,0,0,0h0Zm-62.95-2.62s0,0,0,0h0Zm53.95-78.24s0,0,0,0c0,0,0,0,0,0Zm-28.25-2.31h0,0Zm-.26-.38h0s0,0,0,0Z"/>
            </g>
          </g>
        </g>
        <g id="face">
          <g id="shell-2">
            <g>
              <path class="cls-2" d="m358.07,25.14c-3.36,5.2-8.95,39.85-4.15,61.04,4.82,21.2,18.31,41.5,37.39,41.65,23.91.18,45.76-30.99,39.43-39.33-7.22-9.28-38.46,13.43-38.35,13.5,0,0,9.12-12.55,16.53-29,7.36-16.46,13-36.84,4.89-52.77-9.31-18.27-45.96-10.67-55.73,4.9Z"/>
              <path class="cls-8" d="m391.52,130.36c-.08,0-.15,0-.23,0-9.62-.08-18.6-4.87-25.98-13.85-6.32-7.7-11.24-18.27-13.86-29.76-2.9-12.81-1.89-28.89-1.03-37.33.58-5.72,1.45-11.42,2.44-16.04,1.02-4.76,2.05-7.98,3.08-9.58,3.14-4.99,8.89-9.45,16.2-12.55,7.04-2.99,14.83-4.46,21.94-4.14,10.46.47,18.27,4.73,21.97,12,3.93,7.71,5.14,17.03,3.61,27.69-1.18,8.19-4.02,17.36-8.44,27.25-3.34,7.42-7.02,14.05-10.08,19.13,5.12-3.08,12.31-6.95,18.48-8.58,6.19-1.64,10.6-.85,13.11,2.37,0,0,.01.01.02.02,2.52,3.32,2.09,8.79-1.22,15.41-3.37,6.73-9.11,13.54-15.75,18.67-5.5,4.25-14.15,9.3-24.25,9.3Zm.64-118.26c-12.79,0-26.85,6.25-31.95,14.38,0,0-.01.02-.02.03-1.13,1.75-3.42,10.4-4.74,23.41-.83,8.13-1.81,23.59.93,35.7,4.47,19.65,17,39.54,34.95,39.68.06,0,.13,0,.19,0,15.78,0,30.24-14.69,35.48-25.18,2.74-5.48,2.65-8.85,1.73-10.08-.52-.67-1.35-1.05-2.52-1.19-3.83-.44-10.59,1.92-19.04,6.64-6.77,3.79-12.37,7.81-13.1,8.37-.81.74-2.04.88-3.01.29-.87-.52-1.34-1.52-1.19-2.52.07-.48.23-.84.48-1.15.45-.62,9.17-12.8,16.25-28.52,9.52-21.31,11.18-38.33,4.94-50.58-3.84-7.53-12.73-9.03-17.7-9.25-.56-.02-1.13-.04-1.7-.04Zm2.3,91.34c-.05.07-.08.11-.08.12-.05.07-.11.13-.16.19.08-.09.17-.19.25-.3Zm-4.07-2.99h0s0,0,0,0Zm-32.32-75.31h0,0Z"/>
            </g>
            <g>
              <path class="cls-2" d="m302.96,16.79c-3.96,4.79-13.37,31.63-10.86,53.24,2.53,21.62,15.7,51.68,39.36,52.84,23.91,1.2,41.96-25.98,36.57-34.99-6.14-10.03-39.62,9.06-39.52,9.13.01,0,10.96-12.6,20.51-28.56,9.5-15.98,17.59-35.33,10.51-49.28-9.23-18.26-44.98-16.74-56.57-2.38Z"/>
              <path class="cls-8" d="m332.97,125.43c-.55,0-1.09-.01-1.64-.04-11.47-.57-21.71-7.45-29.61-19.92-3.24-5.12-5.98-10.98-8.13-17.43-1.94-5.83-3.33-11.96-4-17.72-.6-5.22-.58-11.05.08-17.32.56-5.36,1.57-10.92,2.99-16.52,2.4-9.49,5.83-18.24,8.35-21.29,3.47-4.29,8.9-7.67,15.72-9.77,6.34-1.95,13.53-2.64,20.23-1.93,5.42.57,10.46,2.06,14.56,4.3,4.67,2.55,8.13,5.99,10.28,10.24,3.51,6.91,3.89,15.55,1.15,25.68-2.11,7.77-5.95,16.28-11.74,26.03-4.69,7.84-9.71,14.84-13.3,19.6,5.42-2.5,13.11-5.63,19.51-6.59,6.35-.95,10.65.33,12.78,3.81,0,0,0,.01.01.02,1.3,2.17,1.64,5.08,1,8.42-.57,2.94-1.9,6.2-3.84,9.44-3.46,5.77-8.54,11.01-14.3,14.74-6.32,4.1-13.23,6.24-20.07,6.25Zm-1.29-117.16c-4.59,0-9.24.68-13.47,1.98-5.77,1.78-10.49,4.66-13.28,8.12,0,0-.01.02-.02.02-1.47,1.78-4.73,8.95-7.35,19.32-2.94,11.63-3.99,23-2.95,32.02,1.35,11.57,5.61,23.92,11.38,33.03,4.87,7.68,13.26,16.97,25.6,17.58.47.02.93.03,1.39.03,13.05,0,24.41-9.17,30.04-18.54,3.6-6,4.03-10.67,2.85-12.65-.45-.72-1.22-1.2-2.37-1.47-3.75-.86-10.71.73-19.6,4.48-7.13,3.01-13.13,6.39-13.9,6.85-.89.65-2.12.65-3.01-.04-.81-.62-1.17-1.65-.92-2.64.12-.47.32-.8.59-1.08.7-.82,11.16-13.04,20.2-28.15,12.24-20.59,15.75-36.35,10.42-46.84-3.25-6.44-10.86-10.74-20.86-11.8-1.56-.17-3.14-.25-4.74-.25Zm-1.18,90.29c-.16.18-.26.29-.3.33-.03.02-.05.05-.08.07.13-.11.26-.24.39-.4Zm-3.69-3.42h0s0,0,0,0Zm-23.86-78.35h0,0Z"/>
            </g>
            <g>
              <path class="cls-2" d="m97.02,13.29c-14.23.66-30.07,12.53-34,27.73-8.53,33.43,25.33,44.56,25.23,44.64.01-.02-15.38-5.8-18.33-4.8-3.44,1.13-17,11.17-15.81,16.05,3.41,14.01,17.56,32.11,43.38,30.55,23.45-1.39,39.95-14.14,40.46-38.01.55-25.7-18.83-33.51-24.93-36.72-6.49-3.46-11.24-5.4-11.24-5.41.02-.02,17.92,6.14,21.93,4.77,3.11-1.09,10.03-11.06,9.46-14.56-1.5-9.32-19.75-25.04-36.15-24.24Z"/>
              <path class="cls-8" d="m94.4,130.08c-5.25,0-10.26-.79-14.92-2.37-5.04-1.71-9.66-4.31-13.72-7.75-6.92-5.85-12.06-14.03-14.11-22.44-.78-3.18,1.49-7.08,6.94-11.92,3.67-3.26,8.29-6.39,10.52-7.13.51-.17,1.17-.29,2.21-.24-.62-.56-1.23-1.15-1.82-1.76-4.21-4.31-7.18-9.21-8.83-14.56-2.03-6.56-2.06-13.8-.09-21.51,2-7.74,6.98-15.08,14.01-20.67,3.32-2.64,6.93-4.76,10.72-6.3,3.9-1.59,7.8-2.48,11.6-2.66,4.23-.2,8.72.57,13.36,2.3,4.05,1.51,8.17,3.76,11.92,6.52,7.46,5.48,12.63,12.2,13.49,17.55.5,3.06-2.13,7.57-3.75,9.98-1.25,1.87-4.47,6.34-7.37,7.36,0,0-.01,0-.02,0-.37.13-1,.34-2.4.34,2.87,1.81,5.99,4.18,8.85,7.34,6.53,7.21,9.72,16.41,9.49,27.35-.13,6.16-1.29,11.8-3.45,16.77-2.09,4.83-5.13,9.03-9.02,12.5-3.75,3.34-8.3,6-13.51,7.89-5.05,1.84-10.73,2.95-16.86,3.32-1.09.07-2.17.1-3.24.1Zm-23.74-46.8c-1.27.45-5.11,2.91-8.61,6.01-4.84,4.28-5.56,6.63-5.49,7.03,2.58,10.6,14.42,30.22,40.78,28.62,23.75-1.41,37.64-14.37,38.09-35.54.48-22.33-14.77-29.99-22.09-33.67-.54-.27-1.04-.52-1.49-.76,0,0,0,0-.01,0-5.51-2.94-9.78-4.78-10.96-5.28-1.35-.57-1.7-1.79-1.59-2.67.06-.47.25-.91.54-1.27.26-.32,1.22-1.31,2.85-.78.07.02.18.06.32.11,1.41.46,5.71,1.88,10.18,3.06,7.67,2.02,9.48,1.65,9.7,1.58.59-.24,2.59-2.04,4.81-5.35,2.39-3.57,3.04-5.87,2.98-6.42-.64-3.96-5.25-9.7-11.49-14.28-7.23-5.31-15.27-8.17-22.05-7.84,0,0,0,0,0,0-13.71.64-28.21,12.47-31.67,25.84-6.98,27.35,16.17,38.72,23.44,41.55.1.04.17.07.23.09.16.07.31.14.44.22.25.14.45.31.64.56.38.47.5.97.54,1.24.13.91-.25,1.81-.97,2.36-.67.51-1.56.65-2.36.37-.06-.02-.11-.04-.16-.06-.42-.16-3.92-1.47-7.77-2.68-6.74-2.12-8.53-2.06-8.82-2.02Zm16.51,4.67s.03.02.05.02c-.02,0-.03-.01-.05-.02,0,0,0,0,0,0Zm-.2-.1s.03.02.04.02c-.03-.02-.06-.03-.08-.05.01,0,.03.02.04.02Zm-1.17-1.54c.04.15.09.29.15.42-.06-.13-.11-.28-.15-.42Zm0,0s0,0,0,0c0,0,0,0,0,0Zm0,0s0,0,0,0c0,0,0,0,0,0Zm0,0s0,0,0,0c0,0,0,0,0,0Zm11.22-73h0,0Z"/>
            </g>
            <g>
              <path class="cls-2" d="m130.36,18.32c-4.03,4.39-3.4,28.01-1.67,46.7,1.78,18.68,11.02,51.58,14.45,53.5,3.48,1.87,24.24,4.88,27.03.92,1.81-2.61,2.75-37.41,2.76-37.41s1.53,34.49,3.3,37.2c2.7,4.12,23.53-1.37,26.22-2.78,2.64-1.45,9.7-23.8,12.2-44.67,2.45-20.88,4.96-51.47,1.36-55.59-3.57-4.22-38.5-6.65-41.11-1.16-1.6,3.27-3.13,32.99-3.13,32.99s-1.01-29.72-2.56-33.49c-1.5-3.73-34.84-.67-38.84,3.8Z"/>
              <path class="cls-8" d="m161.84,123.91c-1.57,0-3.3-.08-5.13-.23-5.32-.44-12.3-1.62-14.76-2.94-.01,0-.03-.01-.04-.02-1.23-.69-2.48-2.29-4.58-7.85-1.39-3.69-2.94-8.59-4.46-14.14-3.36-12.24-5.86-24.75-6.68-33.46-.98-10.6-1.46-20.9-1.34-28.99.21-14.24,2.18-18.04,3.65-19.65.74-.82,2.28-2.05,7.1-3.34,2.88-.77,6.54-1.45,10.6-1.98,8.31-1.08,16.43-1.3,20.67-.55,1.64.29,3.91.89,4.68,2.8.12.3.31.76.54,2,.23-.99.41-1.37.54-1.64,1.04-2.16,3.89-3.47,8.97-4.13,5.38-.7,13.35-.61,20.8.21,3.6.4,6.83.95,9.34,1.59,3.24.83,5.15,1.73,6.19,2.94,1.53,1.76,2.97,5.92,2.2,23.28-.57,12.72-2.1,26.93-2.96,34.26-1.14,9.48-3.37,20.42-6.13,30.02-1.21,4.2-2.44,7.89-3.57,10.65-1.77,4.34-2.87,5.41-3.79,5.92-.01,0-.03.01-.04.02-1.73.91-8.02,2.69-13.84,3.72-3.47.61-6.41.9-8.74.86-2.26-.04-5.43-.36-6.93-2.64-.23-.36-.53-.82-.89-2.65-.33,1.84-.65,2.46-.98,2.92,0,0,0,.01-.01.02-1.12,1.59-3.25,2.49-6.72,2.85-1.09.11-2.32.17-3.68.17Zm-17.32-7.53c1.43.63,6.43,1.72,12.06,2.22,7.61.68,10.72-.14,11.46-.6.24-.81.9-4.14,1.6-17.17.2-3.71.49-9.91.75-18.39v-.38c.07-1.85,1.48-2.48,2.3-2.56.69-.07,1.37.15,1.89.6.82.71.87,1.59.88,1.93l.02.39c.41,8.48.8,14.66,1.05,18.35.89,12.76,1.56,16.14,1.83,17.02.76.38,3.87.87,11.32-.52,5.49-1.02,10.15-2.45,11.39-2.98.82-1.04,2.89-5.71,5.39-14.61,1.5-5.34,4.23-16.12,5.68-28.21.84-7.16,2.34-21.05,2.92-33.53.78-16.98-.75-19.8-.96-20.11-.45-.39-3.05-1.58-9.91-2.52-5.48-.75-11.85-1.08-17.05-.89-7.77.28-9.69,1.54-9.99,1.78-.2.58-.91,3.46-1.89,16.7-.59,7.9-.96,15.15-.96,15.21,0-.09,0-.17,0-.26,0,.45-.03.87-.31,1.39-.42.75-1.19,1.24-2.04,1.3-.86.06-1.68-.33-2.2-1.02-.47-.63-.51-1.21-.49-1.73,0,.09-.01.18,0,.27,0-.06-.25-7.44-.71-15.48-.66-11.6-1.25-15.4-1.53-16.61-.61-.2-2.19-.54-5.81-.59-3.32-.05-7.48.17-11.7.63-4.29.46-8.39,1.13-11.54,1.89-4.78,1.15-5.69,2.07-5.72,2.11,0,0-.01.01-.02.02-.35.39-2.13,2.99-2.33,16.32-.12,7.92.35,18.02,1.32,28.44.77,8.14,3.11,19.95,6.26,31.6,1.43,5.28,2.88,10.01,4.21,13.68,1.67,4.6,2.59,5.98,2.85,6.32Zm-14.16-98.06h0,0Zm83.75-.48s0,0,0,0c0,0,0,0,0,0Zm0,0s0,0,0,0c0,0,0,0,0,0Zm-.02-.03s0,0,0,0c0,0,0,0,0,0Zm-36.98-1.58h0,0Zm.08-.13s0,0,0,0c0,0,0,0,0,0Zm-10.31-.65s0,0,0,0c0,0,0,0,0,0Zm2.38,32.6h0,0Z"/>
            </g>
            <g>
              <path class="cls-2" d="m254.67,5.62c-13.89.11-27.16,10.54-35.92,25.06-8.79,14.51-13.07,33.1-9.8,49.52,5.33,26.3,27.06,42.68,49.77,41.46,35.56-1.87,48.96-39.73,43.75-47.12-4.23-5.96-39.94-2.26-39.91-2.17-.02-.08,34.56-4.14,38.83-8.29,3.15-3.14-2.44-20.46-6.33-23.79-4.66-4.06-30.8-1.29-30.79-1.24,0-.04,22.52-3.04,26.78-7.19,3.15-3.04-10.57-26.43-36.39-26.23Z"/>
              <path class="cls-8" d="m256.36,124.25c-10.98,0-21.77-3.87-30.62-11.04-4.79-3.87-8.86-8.57-12.11-13.97-3.38-5.62-5.79-11.86-7.14-18.55-1.64-8.22-1.51-17.37.38-26.49,1.8-8.71,5.17-17.3,9.74-24.84,4.62-7.66,10.4-14.11,16.72-18.67,3.32-2.39,6.77-4.25,10.25-5.53,3.68-1.35,7.41-2.04,11.09-2.07h0c11.86-.09,20.65,4.53,25.94,8.43,6.76,4.98,10.89,10.96,12.5,14.9,1.69,4.13.79,6.22-.27,7.24-.62.61-1.63,1.37-3.69,2.26,4.73.54,6.59,1.58,7.59,2.45,2.39,2.06,4.39,6.84,5.37,9.51,1.59,4.34,2.62,8.84,2.74,12.04.11,2.78-.44,4.73-1.66,5.94,0,0-.02.02-.02.02-.95.92-2.83,2.02-7.77,3.35,4.86.67,7.78,1.89,9.15,3.83,1.81,2.56,1.71,6.52,1.3,9.38-.54,3.85-1.93,8.16-4.01,12.45-2.55,5.26-7.31,12.86-15.45,19.16-7.98,6.18-17.24,9.58-27.52,10.12-.83.04-1.67.07-2.5.07Zm-1.66-116.1h0c-12.2.09-24.83,9.01-33.78,23.84-8.95,14.78-12.5,32.62-9.49,47.72,4.71,23.23,23.37,39.49,44.86,39.49.76,0,1.53-.02,2.3-.06,24.62-1.29,35.84-20.56,38.69-26.44,1.83-3.77,3.09-7.65,3.55-10.94.45-3.17.05-5.08-.43-5.76,0,0-.84-1.11-5.99-1.78-3.26-.43-7.54-.6-12.73-.52-9.17.15-17.72,1.03-18.63,1.15-1.26.25-2.52-.48-2.91-1.72-.12-.39-.15-.79-.08-1.17.06-.36.2-.71.42-1.02.28-.4.59-.64.92-.81.01,0,.02-.01.04-.02.27-.13.46-.2.93-.27.1-.02.2-.03.3-.04.29-.04.72-.1,1.27-.17,3.53-.47,11.8-1.58,19.68-3.01,4.39-.8,8-1.58,10.73-2.33,3.86-1.05,4.97-1.76,5.23-1.97.36-.72.51-3.96-1.29-9.9-1.6-5.3-3.7-9.22-4.86-10.22,0,0-.01-.01-.02-.02-.22-.19-2.47-1.84-14.88-1.55-6.79.16-13.06.8-13.8.9-.28.05-.57.05-.86,0-.97-.16-1.75-.87-2.02-1.82-.22-.78-.04-1.59.43-2.21.23-.3.48-.5.73-.65.17-.1.31-.18.6-.25.18-.05.34-.08.44-.09.09-.01.23-.04.41-.06,15-2.24,22.45-4.65,24.52-6.15-.1-1.11-1.27-4.49-4.99-8.81-3.47-4.03-13.21-13.35-28.99-13.35-.1,0-.2,0-.31,0Zm8.87,66.54c-.09.04-.18.07-.28.1.08-.02.17-.05.26-.09,0,0,.01,0,.02,0Zm35.99-12.33h0s0,0,0,0Zm-33.19-21.88c-.13.19-.28.35-.46.5.16-.13.32-.3.46-.5Zm0,0s0,0,0,0c0,0,0,0,0,0Zm0,0s0,0,0,0c0,0,0,0,0,0Zm22.94-10.45s0,0,0,0c0,0,0,0,0,0Z"/>
            </g>
          </g>
          <g id="shockers-2">
            <g>
              <path class="cls-2" d="m446.07,209.52c11-.43,23.26-9.58,26.46-21.69,7.09-26.73-20.21-36.53-20.23-36.49,0,0,12.5,4.94,14.87,4.23,2.76-.84,13.87-8.49,12.98-12.45-2.56-11.37-14.15-26.56-35.78-25.55-19.63.93-33.01,11.56-32.59,30.78.45,20.67,16.26,27.95,21.15,30.57,5.24,2.79,12.13,5.41,12.13,5.41s-16.24-6.11-18.21-5.01c-2.29,1.25-10.16,7.95-9.59,10.76,1.52,7.47,16.16,19.92,28.81,19.45Z"/>
              <path class="cls-8" d="m445.36,212.06c-3.11,0-6.41-.66-9.82-1.97-3.22-1.24-6.52-3.06-9.55-5.28-6.03-4.43-10.33-9.88-11.21-14.24-.28-1.37-.12-3.72,4.41-8.26,1.95-1.95,4.41-3.98,5.99-4.96-2.25-1.51-4.71-3.45-7.01-5.95-5.72-6.21-8.72-13.95-8.92-23.01-.22-9.96,3.1-18.32,9.61-24.18,6.11-5.51,14.89-8.68,25.39-9.18,10.33-.48,19.6,2.54,26.81,8.75,5.77,4.97,9.99,11.81,11.55,18.78.63,2.78-1.33,6.02-5.96,9.89-3.08,2.57-6.84,4.95-8.74,5.53,0,0,0,0-.01,0-.16.05-.36.11-.65.14.88.89,1.74,1.84,2.56,2.87,2.8,3.52,4.7,7.42,5.67,11.58,1.15,4.94.98,10.29-.5,15.89-1.65,6.25-5.62,12.13-11.17,16.56-5.39,4.29-11.65,6.78-17.63,7.01,0,0,0,0,0,0-.27,0-.54.01-.81.01Zm.71-2.54h0,0Zm-26.3-19.77c1.42,5.92,14.46,17.69,26.2,17.25h0c10.52-.41,21.34-9.29,24.12-19.81,2.64-9.94.5-18.5-6.36-25.43-4.59-4.63-9.93-7.09-11.63-7.79-.18-.07-.36-.14-.55-.21l-.1-.04c-.34-.12-.66-.32-.93-.59-.86-.86-.99-2.21-.3-3.22.23-.33.52-.59.85-.78.5-.29.99-.34,1.39-.31.22.01.45.06.67.13.04.01.09.03.16.06.12.05.28.1.44.17.09.04.21.08.33.14,7.43,2.84,11.46,3.82,12.48,3.8.91-.34,3.65-1.92,6.47-4.21,3.67-2.98,4.6-4.82,4.66-5.28-1.97-8.61-11.4-24.54-33.19-23.53-19.27.91-30.55,11.45-30.18,28.2.4,18.19,13.45,25.05,19.02,27.98.29.15.55.29.79.42,4.78,2.54,11.12,5,11.82,5.27,1,.38,1.64,1.31,1.64,2.37,0,.83-.41,1.6-1.09,2.08-.33.23-1.21.71-2.35.28-.65-.24-4.08-1.52-7.78-2.72-5.92-1.93-8-2.22-8.61-2.25-.89.57-2.7,1.97-4.54,3.74-2.48,2.39-3.29,3.83-3.44,4.3Zm8.3-8.23s0,0,0,0c0,0,0,0,0,0Zm23.54-27.75c.19.06.41.09.63.1-.21,0-.42-.04-.63-.1Zm-.13-.04s.06.02.09.03c0,0,0,0,0,0-.03,0-.05-.02-.08-.03Zm2.24-.3s-.06.04-.1.06h0s.06-.04.09-.06Zm0,0s0,0,0,0c0,0,0,0,0,0Zm0,0s0,0,0,0c0,0,0,0,0,0Zm0,0s0,0,0,0c0,0,0,0,0,0Zm23.93-9.83h0s0,0,0,0Z"/>
            </g>
            <g>
              <path class="cls-2" d="m412.93,168.24s14.32-3.6,13.5-25.97c-1.03-28.52-49-29.03-56.48-23.14-7.54,5.76-15.83,75.95-12.28,79.32,3.59,3.39,27.47,8.03,31.18,4.6,3.72-3.47.84-27.92.84-27.92.01,0,6.74,26.67,11.44,29.76,3.46,2.23,26.79-.39,29.56-4.38,2.99-4.31-17.73-32.29-17.76-32.27Zm-18.31-22.15c-.8,6-3.54,9.55-3.54,9.55.73-6.45,1.47-12.89,2.21-19.34,1.11-9.67,2.14,3.74,1.33,9.79Z"/>
              <path class="cls-8" d="m406.92,208.23s-.07,0-.1,0c-4.64-.01-6.25-.7-7.05-1.22h-.02c-1.42-.94-3.41-3.17-6.54-11.66-.03.75-.08,1.45-.14,2.11-.35,3.87-1.12,6.16-2.49,7.44-1.4,1.3-3.83,1.89-7.66,1.89-2.82,0-6.32-.34-10.12-.98-3.55-.59-7.1-1.41-10-2.3-5.12-1.57-6.43-2.8-6.86-3.21-1.01-.95-1.43-2.51-1.59-5.75-.1-2.23-.06-5.21.14-8.87.6-11.21,2.48-26.92,4.8-40.01,1.29-7.29,2.63-13.33,3.97-17.98,2.18-7.51,3.89-9.58,5.14-10.54,3.49-2.73,11.66-3.61,18.16-3.51,5.36.08,15.78.87,25.3,5.27,10.82,5.01,16.73,13.06,17.1,23.29.2,5.31-.42,10.09-1.82,14.18-1.16,3.39-2.86,6.33-5.06,8.74-1.82,2-3.7,3.32-5.24,4.18,2.06,2.85,5.34,7.55,8.33,12.24,2.82,4.43,4.96,8.17,6.34,11.1,2.19,4.66,2.57,7.45,1.27,9.32-1.02,1.47-3.14,2.63-6.67,3.67-2.65.78-5.97,1.44-9.6,1.92-3.4.45-6.8.7-9.58.7Zm-4.44-5.48c.16.07,1.25.45,4.65.43,2.55-.01,5.66-.25,8.77-.66,7.72-1.03,11.59-2.57,12.57-3.31-.04-.51-.31-2.04-2.1-5.58-1.37-2.73-3.36-6.12-5.91-10.09-4.4-6.83-8.97-13.04-9.46-13.68-.37-.45-.59-1.02-.59-1.62,0-.94.5-1.77,1.3-2.21h0c.17-.09.34-.17.52-.22.01,0,.02,0,.03,0,.32-.09,3.25-.99,6.08-4.1,3.95-4.34,5.87-11.02,5.57-19.34-.3-8.32-5.07-14.67-14.17-18.89-8.67-4.01-18.29-4.73-23.25-4.8-7.65-.11-13.33,1.15-14.97,2.44,0,0-.02.02-.03.02-.19.15-1.94,1.73-4.52,12.31-1.62,6.63-3.2,15.28-4.58,25-1.27,8.97-2.23,17.95-2.71,25.29-.61,9.36-.17,12.31,0,13.08,1.44.96,6.55,2.72,13.59,3.94,3.45.6,6.64.93,9.22.97,3.36.05,4.45-.43,4.65-.54.21-.32,1.44-2.66,1.01-13.4-.25-6.19-.9-11.89-.95-12.31-.02-.12-.02-.23-.02-.35,0-1.4,1.13-2.53,2.53-2.53.89,0,1.91.5,2.35,1.6h0c.03.07.05.13.08.23.01.03.02.07.03.1l.04.15c.76,2.91,2.31,8.67,4.22,14.45,3.76,11.42,5.73,13.34,6.08,13.61Zm-.02,0s0,0,0,0h0Zm-15.36-1.51h0s0,0,0,0Zm41.54-2.18s0,0,0,0c0,0,0,0,0,0Zm-68.9-2h0Zm29.95-19.39h0,0,0Zm0,0h0,0,0Zm0,0h0,0,0Zm0,0h0,0,0Zm-2.22-1.34c.24.45.61.82,1.06,1.05-.57-.3-1.02-.81-1.23-1.44.04.13.1.26.16.39Zm-.26-.77c.02.11.04.21.07.32,0-.01,0-.02,0-.03-.03-.09-.05-.19-.07-.29Zm23.81-5.67c.41.5,1,.8,1.63.87-.34-.04-.68-.15-.99-.33-.25-.14-.46-.33-.64-.54Zm-19.93-11.71c-.32,0-.64-.06-.95-.18-1.05-.43-1.69-1.5-1.56-2.63.73-6.45,1.48-12.96,2.21-19.34.14-1.21.28-2.13.44-2.8.14-.61.47-2.05,1.83-2.63.87-.37,1.87-.24,2.63.33.91.69,1.2,1.74,1.42,3.33.13.99.23,2.27.29,3.7.12,3.15.03,6.32-.26,8.47-.88,6.59-3.91,10.59-4.04,10.76-.49.64-1.24.99-2,.99Z"/>
            </g>
            <g>
              <path class="cls-2" d="m334.02,204.73c-21.48.14-42.6-32.09-38.87-58.78,3.02-21.37,20.57-35.42,39.7-34.67,30.02,1.21,40.8,32.27,36.48,38.04-3.44,4.6-32.37,1.55-32.38,1.59,0-.04,28.07,3.28,31.47,6.81,2.53,2.58-2.01,16.43-5.07,19.07-3.69,3.15-24.43.91-24.44.93,0-.02,17.92,2.38,21.28,5.82,2.45,2.51-8.22,21.05-28.18,21.18Z"/>
              <path class="cls-8" d="m333.89,207.25c-8.85,0-18.01-4.91-25.84-13.85-5.46-6.24-9.82-13.91-12.61-22.19-2.95-8.74-3.91-17.6-2.79-25.62.78-5.51,2.48-10.69,5.07-15.4,2.49-4.53,5.72-8.5,9.6-11.8,7.77-6.61,17.58-10.03,27.63-9.64,8.86.36,16.8,3.16,23.59,8.35,6.9,5.26,10.84,11.61,12.94,16.01,1.64,3.45,2.72,6.91,3.12,9.99.31,2.36.34,5.61-1.25,7.73-.99,1.33-2.75,2.21-5.58,2.78,2.78.93,3.84,1.7,4.47,2.35,1.07,1.09,1.54,2.79,1.44,5.17-.22,5.36-3.5,14.84-6.67,17.57,0,0,0,0,0,0-.76.65-1.98,1.34-4.67,1.8.82.47,1.33.9,1.68,1.27.94.96,1.73,2.88.2,6.57-1.72,4.13-5.44,8.62-9.93,12.01-4.13,3.11-11,6.84-20.23,6.9h0c-.05,0-.1,0-.15,0Zm.14-2.53h0,0Zm-.64-90.95c-17.85,0-33.08,13.75-35.73,32.52-2.02,14.44,3.55,31.62,14.2,43.78,6.85,7.82,14.67,12.12,22.04,12.12.04,0,.08,0,.12,0h0c11-.07,18.14-6.1,21.42-9.69,3.18-3.48,4.36-6.39,4.57-7.51-.87-.56-3.32-1.72-9.89-3.12-4.5-.96-8.81-1.57-9.42-1.64-.32-.03-.63-.12-.93-.28-.93-.49-1.46-1.5-1.34-2.54.1-.84.65-1.67,1.55-2.03h0c.36-.15.64-.2,1-.19.09,0,.18,0,.28.01.06,0,.16.01.28.03,4.25.4,8.12.63,11.52.69,8.93.16,10.58-.99,10.68-1.06.72-.64,2.33-3.43,3.66-7.71,1.38-4.44,1.39-7.04,1.17-7.75-.51-.36-3.21-1.83-15.28-3.9-7.17-1.23-13.8-2.02-14.45-2.08-.35-.02-.69-.11-1.01-.28-.94-.49-1.48-1.51-1.34-2.56.09-.71.58-1.63,1.56-2.02h0c.37-.15.59-.2,1.06-.18.08,0,.17,0,.25.01.1,0,.24.02.43.04,5.84.53,11.09.82,15.61.89,11.7.16,13.78-1.38,13.96-1.54.24-.36.58-1.61.27-4.03-.33-2.53-1.28-5.54-2.67-8.47-2.3-4.83-11.41-20.65-32.17-21.48-.46-.02-.92-.03-1.37-.03Zm7.53,66.48c.17,0,.35-.02.52-.05-.2.04-.41.06-.62.05.03,0,.07,0,.1,0Zm-.21-.01s.07,0,.1,0c0,0-.01,0-.02,0-.03,0-.05,0-.08,0Zm-.73-27.02c-.05.02-.11.04-.16.06.04-.01.08-.03.13-.05.01,0,.02,0,.03-.01Z"/>
            </g>
            <g>
              <path class="cls-2" d="m255.84,116.11c-7.05,7.24-3.75,70.46,3.65,78.28,3.4,3.55,21.83,7.6,25.43,5.29,3.82-2.46-2.55-25.33-2.56-25.33,0,0,5.89,22.34,9.2,24.87,3.6,2.7,28.47-.88,30.56-4.93,2.46-4.78-21.53-34.07-21.52-39.07,0-3.94,22.73-32.33,18.79-37.04-4.29-5.13-26.16-7.78-29.19-6.19-3.69,1.9-8.67,26.18-8.66,26.18,0,0,5.27-25.67,1.91-26.84-3.37-1.19-24.24,1.3-27.61,4.78Z"/>
              <path class="cls-8" d="m281.14,202.89c-.43,0-.88-.01-1.35-.03-2.36-.11-5.19-.51-8.18-1.15-2.54-.54-11.04-2.54-13.94-5.57,0,0,0,0,0,0-1.17-1.24-2.2-3.3-3.15-6.29-.8-2.53-1.53-5.73-2.19-9.53-1.22-7.04-2.14-15.97-2.6-25.15-.45-9.25-.4-18.15.15-25.06.9-11.21,2.8-14.35,4.15-15.74,1.13-1.17,3.16-2.14,6.38-3.05,2.44-.69,5.5-1.32,8.86-1.83,1.18-.18,11.66-1.7,15.01-.53.86.3,1.98,1.09,2.48,3.16.85-1.39,1.59-2,2.28-2.36.75-.39,2.24-.88,6.5-.71,2.74.11,6.01.48,9.22,1.03,3.58.62,6.88,1.44,9.53,2.36,3.43,1.2,5.73,2.55,7.05,4.12,1.73,2.07.86,5.08.57,6.06-.51,1.76-1.45,3.91-2.87,6.58-2.51,4.7-6.1,10.22-9.27,15.09-1.76,2.7-3.42,5.24-4.65,7.29-1.45,2.4-1.85,3.37-1.96,3.7.1.4.56,1.69,2.68,5.15,1.7,2.78,3.95,6.14,6.33,9.69,3.25,4.85,6.61,9.86,9.04,14.1,3.39,5.91,4.28,9.06,3.16,11.23-.66,1.28-2.06,2.33-4.41,3.31-1.69.7-3.87,1.36-6.45,1.95-4.22.97-9.08,1.66-13.32,1.9-6.95.39-9.12-.59-10.14-1.36,0,0,0,0-.01-.01-.51-.39-1.09-.99-1.81-2.2-.34,1.14-.94,2.13-1.94,2.78-1.14.73-2.8,1.08-5.15,1.08Zm-19.82-10.24c.98,1.02,5.2,2.79,11.11,4.06,2.64.57,5.25.95,7.33,1.08,2.19.13,3.22-.06,3.61-.17.22-.65.72-3.3-.91-11.77-.79-4.1-1.75-7.89-2.22-9.68-.1-.36-.19-.7-.27-.99l-.03-.1c-.06-.19-.09-.39-.1-.59-.07-1.35.94-2.51,2.28-2.64.62-.06,1.22.11,1.7.45.2.14.39.32.55.53.16.21.29.44.38.7,0,0,0,.03.02.06.02.05.03.1.04.15l.03.12s0,0,0,.01c.06.23.15.56.26.98.7,2.55,1.86,6.66,3.21,10.83,2.99,9.26,4.45,11.19,4.75,11.52.23.1,1.38.49,4.71.45,2.58-.03,5.79-.32,9.02-.81,3.28-.49,6.41-1.17,8.83-1.91,2.64-.8,3.72-1.45,4.11-1.74-.09-.65-.62-2.54-3.42-7.29-2.31-3.92-5.39-8.51-8.36-12.95-7.04-10.5-9.9-15.04-9.89-17.72,0-2.05,1.93-5.2,7.46-13.68,2.88-4.41,6.13-9.42,8.51-13.71,3.18-5.76,3.33-7.7,3.29-8.16-1.23-1.26-5.29-3.15-13.01-4.53-6.61-1.18-11.66-1.21-12.9-.9-.39.44-1.94,2.68-4.59,12.57-1.6,5.97-2.75,11.58-2.8,11.83-.11.59-.43,1.15-.95,1.54-1.08.83-2.62.65-3.49-.4-.33-.4-.48-.81-.54-1.18h0c-.04-.23-.06-.37,0-.76.01-.11.03-.2.04-.27.03-.19.08-.43.15-.74.44-2.27,1.29-6.78,1.94-11.37,1.09-7.75.93-10.77.75-11.86-1.84-.16-6.4.03-12.04.89-3.12.47-5.94,1.06-8.15,1.69-3.33.95-4.05,1.66-4.08,1.69,0,0,0,0,0,0-.31.32-1.92,2.45-2.74,12.63-.54,6.7-.59,15.37-.14,24.41.44,8.98,1.34,17.7,2.53,24.54,1.76,10.14,3.52,12.67,4.03,13.2Zm31.81,4.59s0,0,0,0c0,0,0,0,0,0Zm-10.76-20.36h0,0Zm0,0h0,0Zm0,0h0,0Zm0,0h0,0Zm-2.37-1.7c.18.54.54.98,1,1.28-.46-.3-.82-.75-1-1.29,0,0,0,0,0,0Zm4.09-37.06c0,.17,0,.33-.04.49.03-.16.04-.33.04-.49Zm-28.23-22.01h0,0Zm26.77-2.4s0,0,.01,0c0,0,0,0-.01,0Z"/>
            </g>
            <g>
              <path class="cls-2" d="m230.51,110.65c-22.02-1.03-41.78,33.72-36.6,60.16,4.12,21.17,21.41,34.27,40.12,33.18,32.08-1.82,36.89-39.19,35.08-46.28-1.5-5.89-32.93-1.85-32.92-1.8,0,0-4.06,19.91-3.88,17.34.85-12.21.8-22.89-.62-33.54-.53-4,2.27,13.41,5.05,13.96,2.79.52,29.18,1.27,31.28-2.12,1.84-2.96-9.77-39.6-37.52-40.91Z"/>
              <path class="cls-8" d="m231.89,206.58c-9.04,0-17.83-3.1-24.97-8.86-3.89-3.13-7.18-6.95-9.8-11.34-2.71-4.56-4.62-9.63-5.69-15.08-1.62-8.26-1.01-17.57,1.77-26.92,2.62-8.81,7.08-17.17,12.57-23.53,7.43-8.61,16.25-13.12,24.86-12.72,0,0,0,0,0,0,7.83.37,15.09,3.36,21.56,8.89,6.28,5.36,10.52,12.06,12.97,16.73,1.99,3.79,3.63,7.83,4.63,11.37.45,1.6.74,3,.87,4.17.18,1.65.03,2.76-.49,3.6-.27.43-.62.81-1.08,1.15,1.18.69,2.12,1.66,2.47,3.05.76,3,.45,8.67-.8,14.43-1.14,5.25-3.57,12.97-8.67,19.92-3.15,4.3-6.92,7.74-11.21,10.24-4.91,2.86-10.53,4.48-16.7,4.83-.76.04-1.53.07-2.29.07Zm-2.32-93.43c-6.77,0-13.84,3.88-19.98,10.99-10.68,12.38-16.11,31.37-13.21,46.18,3.72,19.09,19.48,32.19,37.5,31.14,10.1-.57,18.22-4.95,24.13-13.01,4.57-6.24,6.77-13.24,7.81-18.01,1.28-5.89,1.24-10.27.89-11.94-.43-.34-3.08-1.86-15.24-1.37-5.37.22-10.58.75-13.17,1.05-.35,1.7-.91,4.38-1.47,7.05-.54,2.57-.99,4.61-1.32,6.08-.21.9-.37,1.58-.49,2.06-.08.3-.14.52-.2.7-.7,2.14-2.62,1.94-2.83,1.91-.82-.11-2.33-.87-2.19-2.91.9-12.93.72-23.12-.61-33.02-.03-.24-.05-.4-.06-.52-.19-1.83,1.14-2.74,2.07-2.9,1.14-.2,2.5.4,2.9,1.92.02.07.04.18.08.31.05.2.11.49.19.86.31,1.46.9,4.19,1.62,6.74.86,3.05,1.47,4.32,1.77,4.8,1.85.18,7.42.43,13.86.32,9.63-.17,13.01-1.03,14.07-1.43-.1-1.27-.71-4.24-2.43-8.52-2.22-5.5-5.39-10.92-8.95-15.24-6.87-8.35-14.91-12.8-23.92-13.22h0c-.27-.01-.55-.02-.82-.02Zm36.11,37.55h0s0,0,0,0Zm-31.54-11.72h0s0,0,0,0Z"/>
            </g>
            <g>
              <path class="cls-2" d="m34.54,208.66c11.02-.51,23.66-9.76,27.38-21.89,8.23-26.78-18.63-36.37-18.65-36.34,0,0,12.28,4.85,14.69,4.12,2.8-.86,14.25-8.59,13.53-12.53-2.05-11.34-12.94-26.46-34.63-25.32-19.68,1.05-33.56,11.78-34,31-.47,20.68,15.05,27.85,19.82,30.44,5.12,2.75,13.07,5.31,13.06,5.31s-17.14-5.98-19.16-4.87c-2.35,1.27-10.51,8.03-10.06,10.84,1.21,7.46,15.33,19.81,28.01,19.23Z"/>
              <path class="cls-8" d="m33.68,211.21c-3.06,0-6.28-.64-9.59-1.9-3.19-1.22-6.42-3.02-9.37-5.23-5.88-4.41-9.97-9.87-10.68-14.25-.22-1.35.27-2.84,1.48-4.56.77-1.1,1.86-2.33,3.24-3.66,2.06-1.99,4.65-4.07,6.26-5.03-2.18-1.49-4.55-3.42-6.73-5.89-5.48-6.2-8.15-13.95-7.94-23.04.11-5.04,1.11-9.67,2.95-13.78,1.79-4,4.38-7.49,7.7-10.38,6.34-5.53,15.24-8.75,25.74-9.31,10.38-.55,19.53,2.43,26.49,8.61,5.57,4.95,9.5,11.8,10.76,18.78.5,2.75-1.58,5.96-6.34,9.83-3.19,2.58-7.02,4.97-8.93,5.56h-.01c-.24.08-.51.14-.85.17,1.44,1.5,2.82,3.21,4.02,5.14,2.09,3.37,3.41,7.05,3.92,10.95.59,4.48.1,9.29-1.44,14.3-1.91,6.23-6.11,12.11-11.81,16.55-5.54,4.31-11.89,6.84-17.86,7.12,0,0,0,0,0,0-.32.01-.65.02-.98.02Zm-24.62-22c1.16,5.87,13.64,17.46,25.37,16.93,10.58-.49,21.84-9.51,25.08-20.11,3.06-9.95,1.3-18.47-5.23-25.32-4.34-4.55-9.41-6.91-11.15-7.63-.21-.08-.42-.16-.63-.24l-.08-.03c-.38-.14-.73-.37-1.02-.69-.85-.95-.86-2.38-.03-3.34.13-.15.29-.3.48-.43h0c.47-.32.98-.47,1.53-.44.26.01.54.06.83.16.07.02.17.06.3.11.12.05.29.11.5.2,7.32,2.8,11.32,3.75,12.32,3.72.92-.34,3.77-1.96,6.73-4.3,3.84-3.03,4.87-4.92,4.95-5.4-1.08-5.87-4.4-11.64-9.13-15.84-5.94-5.28-13.85-7.82-22.87-7.34-19.41,1.04-31.22,11.7-31.6,28.54-.41,18.13,12.29,24.86,17.72,27.74.28.15.54.29.78.42,3.37,1.81,8.1,3.56,10.77,4.49.84.28,1.49.5,1.85.63l.05.02h0c.95.34,1.36,1.03,1.52,1.42.28.68.26,1.44-.07,2.1-.48.96-1.68,1.7-3.06,1.26h0s-.03,0-.03,0c-.33-.11-.98-.33-1.85-.63-1.65-.55-4.09-1.35-6.6-2.11-6.24-1.88-8.36-2.11-8.96-2.13-.92.57-2.83,2.01-4.79,3.84-2.62,2.45-3.49,3.91-3.66,4.39Zm34.17-36.25c.08,0,.16,0,.24,0,.39-.03.78-.15,1.12-.36-.62.38-1.35.46-2.02.27.03,0,.06.02.08.02.19.05.38.07.58.08Zm-.78-.14s.06.02.09.03c0,0,0,0,0,0-.03,0-.05-.02-.08-.03Zm2.14-.24s0,0,0,0c0,0,0,0,0,0Zm0,0s0,0,0,0c0,0,0,0,0,0Zm0,0s0,0,0,0c0,0,0,0,0,0Zm0,0h0s0,0,0,0Zm0,0s0,0,0,0c0,0,0,0,0,0Zm0,0s0,0,0,0c0,0,0,0,0,0Zm0,0s0,0,0,0c0,0,0,0,0,0Zm0,0s0,0,0,0c0,0,0,0,0,0Zm0,0s0,0,0,0c0,0,0,0,0,0Zm0,0s0,0,0,0c0,0,0,0,0,0Zm0,0s0,0,0,0c0,0,0,0,0,0Zm0,0s0,0,0,0c0,0,0,0,0,0Zm0,0s0,0,0,0c0,0,0,0,0,0Zm0,0s0,0,0,0c0,0,0,0,0,0Zm0,0s0,0,0,0c0,0,0,0,0,0Zm0,0s0,0,0,0c0,0,0,0,0,0Zm0,0s0,0,0,0c0,0,0,0,0,0Zm0,0s0,0,0,0c0,0,0,0,0,0Zm0,0s0,0,0,0c0,0,0,0,0,0Zm0,0s0,0,0,0c0,0,0,0,0,0Zm0,0s0,0,0,0c0,0,0,0,0,0Zm0,0s0,0,0,0c0,0,0,0,0,0Zm0,0s0,0,0,0c0,0,0,0,0,0Z"/>
            </g>
            <g>
              <path class="cls-2" d="m127.48,195.87c3.25-3.46,3.39-22.43,2.49-37.46-.9-15.03-7.7-41.54-10.57-43.1-2.86-1.57-20.24-3.95-22.61-.7-1.56,2.12-2.37,34.73-2.36,34.73s-1.24-32.33-2.71-34.49c-2.26-3.32-19.73,1.56-21.94,2.82-2.22,1.24-7.79,19.41-9.41,36.25-1.62,16.84-2.94,41.47-.04,44.65,2.9,3.14,30.18,4.25,32.23-.08,1.24-2.64,2.68-21.87,2.69-21.87s.57,19.2,1.77,22.21c1.16,2.88,27.22.46,30.48-2.97Z"/>
              <path class="cls-8" d="m78.26,203.88c-2.37,0-4.86-.1-7.31-.3-10.22-.83-11.93-2.68-12.5-3.29,0,0,0,0-.01-.01-1.13-1.24-1.75-3.46-2.1-7.43-.25-2.93-.33-6.8-.24-11.52.15-7.74.78-17.82,1.73-27.64.74-7.66,2.4-16.56,4.56-24.41.94-3.43,1.93-6.45,2.84-8.73,1.47-3.66,2.45-4.61,3.28-5.08,1.61-.91,7.07-2.5,11.71-3.4,2.92-.57,5.41-.87,7.39-.88,1.99,0,4.79.21,6.17,2.24.12.18.26.38.41.78.18-.53.36-.83.55-1.09,1.01-1.39,2.89-2.19,5.91-2.5,2.53-.26,5.45-.14,7.45.02,4.64.36,10.42,1.32,12.51,2.46,1.13.62,2.23,1.99,3.9,6.64,1.08,3,2.24,6.96,3.36,11.46,2.47,9.89,4.19,20.01,4.61,27.06.51,8.49.62,16.77.31,23.33-.53,11.47-2.14,14.58-3.48,16,0,0,0,0-.01.01-.64.67-1.95,1.69-5.93,2.72-2.32.6-5.26,1.14-8.5,1.55-5.08.65-12.42,1.13-16.39.38-1.3-.25-3.11-.77-3.81-2.41-1,1.75-3.3,2.82-7.39,3.44-2.53.39-5.67.58-9.03.58Zm-16.08-7.04c.32.17,1.51.71,4.77,1.21,2.7.41,6.05.68,9.42.76,3.49.08,6.82-.06,9.39-.39,3.12-.4,4.25-.96,4.57-1.16.19-.62.7-2.85,1.47-10.43.45-4.38.79-8.65.92-10.29.12-1.6,1.36-2.43,2.53-2.43s2.48.89,2.53,2.54c.05,1.65.2,5.96.46,10.43.38,6.44.74,9.1.96,10.18.6.14,1.85.33,4.27.35,2.55.02,5.72-.16,8.93-.5,3.26-.35,6.39-.86,8.82-1.42,3.46-.81,4.35-1.46,4.45-1.54.23-.27,1.62-2.32,2.1-12.76.3-6.38.19-14.48-.31-22.8-.38-6.45-1.96-15.84-4.22-25.1-2.39-9.8-4.42-14.9-5.24-16.02-1.07-.44-4.79-1.29-9.62-1.71-5.95-.52-8.65.03-9.45.39-.24,1-.81,4.64-1.4,17.36-.38,8.14-.57,15.85-.57,15.91h0c0,.37-.07.72-.29,1.13-.44.83-1.3,1.35-2.23,1.35,0,0-.01,0-.02,0-.94,0-1.81-.54-2.23-1.38-.2-.39-.26-.71-.27-1.07h0c0-.06-.29-7.68-.77-15.84-.71-12.22-1.28-16-1.54-17.16-.71-.19-3.07-.51-9.24.78-4.43.92-8.13,2.13-9.15,2.58-.68.95-2.32,4.77-4.2,11.81-1.15,4.31-3.21,12.96-4.14,22.58-.91,9.41-1.52,19.12-1.69,26.64-.28,12.45.72,15.44,1,16.02Zm65.3-.97h0,0Zm-1.81-1.76s0,0,0,0c0,0,0,0,0,0Zm-54.67-74.23h0s0,0,0,0Zm47.2-2.35s0,0,0,0c0,0,0,0,0,0Zm-19.48-1.3h0s0,0,0,0Z"/>
            </g>
          </g>
        </g>
      </g>
      <path class="cls-8" d="m126.28,202.73s10.12,7.91,28.54,11.52c15.47,3.03,44.76.62,52.29-14.2l-8.09-15.61-58.53,1.13-16.95,11.78,2.74,5.38Z"/>
      <path class="cls-7" d="m64.59,30.72c-.65,2.07-1.01,4.4-.07,6.36s3.59,3.19,5.39,1.98c.93-.63,1.43-1.71,1.91-2.73,2.74-5.83,6.81-11.59,12.92-13.63,7.63-2.55,15.71,1.4,23.63,2.82,4.18.75,9.61.07,10.97-3.96,1.11-3.27-1.31-6.7-4.04-8.82-5.27-4.09-12.15-5.8-18.81-5.45s-13.11,2.66-18.93,5.91c-5.57,3.11-11.07,11.51-12.96,17.5Z"/>
      <path class="cls-7" d="m131.68,17.7c1.95,2.31,5.45,2.6,8.41,1.95s5.73-2.05,8.72-2.49c2.49-.37,5.02-.06,7.49.42,1.96.38,3.92.87,5.64,1.88,1.46.85,2.86,2.11,4.55,2.03,2.54-.12,5.34-2.5,5.66-5.02.19-1.52-.68-3.64-1.51-4.92-1.46-2.27-5.25-2.49-7.95-2.47-5.88.05-11.77-.43-17.57-1.45-2.07-.36-4.15-.79-6.24-.65-4.66.32-11.43,5.71-7.2,10.72Z"/>
      <path class="cls-7" d="m177.14,16.19c1.11.51,5.69-.08,6.91-.05,5.16.12,10.34-.74,15.46-.09s10.45,3.29,12.3,8.11c1.73.96,4.04.13,5.27-1.42s1.59-3.62,1.67-5.59c.08-1.91-.11-3.96-1.29-5.47-.75-.95-1.82-1.59-2.93-2.08-3.47-1.51-7.35-1.62-11.13-1.71-6.26-.15-14.31-1.65-20.45-.51-10.36,1.93-11.98,7.26-5.8,8.81Z"/>
      <path class="cls-7" d="m218.72,35.88c2.83-4.18,9.63-13.36,12.54-15.59,7.3-5.59,14.72-8.95,23.88-8.09s17.61,5.21,25.46,9.99c2.94,1.79,6.65,3.7,9.61,1.94,2.7-1.6,3.07-5.59,1.64-8.38-1.44-2.79-4.15-4.65-6.75-6.4-3.56-2.39-7.14-4.79-11.04-6.58-17.75-8.13-46.11,2.33-54.14,21.58-1.46,3.51-1.17,7.51-1.19,11.52Z"/>
      <path class="cls-7" d="m313.21,4.29c-3.3,1.2-6.64,2.64-9.09,5.16s-3.85,6.35-2.6,9.64c.12.33.28.65.51.92,1.17,1.34,3.34.47,4.87-.43,6.02-3.57,12.92-7.98,19.92-7.87,4.44.07,11.07,1.24,14.97,3.36,2.28,1.23,8.87,5.16,11.36,5.88s5.47.48,7.25-1.41c1.48-1.57,1.81-4,1.19-6.06s-2.05-3.81-3.7-5.2c-9.71-8.18-33.61-8.01-44.67-3.98Z"/>
      <path class="cls-7" d="m365.22,12.61c-.56.61-1.09,1.3-1.24,2.11-.28,1.53.96,3.02,2.42,3.57s3.08.4,4.63.24c3.2-.33,6.4-.66,9.6-.99,6.11-.63,12.32-1.25,18.36-.12s11.99,4.28,15.07,9.59c1.09,1.89,2.34,4.34,4.51,4.22,1.79-.1,2.95-2.14,2.78-3.93s-1.7-4.54-2.76-5.99c-3.61-4.93-4.97-7.47-12.13-11.96-10.25-6.42-32.56-6.17-41.23,3.26Z"/>
      <path class="cls-7" d="m405.8,93.4s0,.07,0,.11c.06,2.26,1.59,3.51,3.7,2.85,1.95-.61,3.9-1.22,5.86-1.82,1.4-.43,2.55-1.18,3.94-1.67,3.04-1.07,6.26-.5,9.36-.01,1.64.26,3.31-.02,4.94-.35.93-.19,1.98-.51,2.34-1.38.14-.34.15-.72.13-1.08-.5-8.11-10.88-7.69-16.5-6.56-4.1.83-8,2.72-11.01,5.64-1.16,1.12-2.73,2.56-2.75,4.28Z"/>
      <path class="cls-7" d="m337.15,91.58c-.79,1.41-1.24,3.44.03,4.44.5.39,1.16.51,1.8.54,2.58.09,4.99-1.19,7.24-2.47,6.03-3.41,12.72-7.12,19.49-5.65,1.98.43,4.28,1.23,5.86-.04,1.51-1.21,1.27-3.74-.02-5.19-8.19-9.27-29.54-.26-34.4,8.38Z"/>
      <path class="cls-7" d="m17.57,116.5c-2.54,1.28-6.42,3.43-5.58,6.14.74,2.39,14.83-.55,19.63-1.52,12.45-2.53,17.35,2.29,23.78,3.7,1.85.41,4.05.84,5.45-.45,1.56-1.43.99-4.11-.38-5.71-8.25-9.59-33.51-6.89-42.9-2.17Z"/>
      <path class="cls-7" d="m67.02,116.92c-.47,1.24-.7,2.73.06,3.82.88,1.26,2.72,1.41,4.22,1.04,5.59-1.38,9.3-6.39,15.22-2.75.62.38,1.22.83,1.9,1.08s4.86-.6,5.4-2.71c2.68-10.44-12.32-7.55-18.31-5.97-3.78,1-6.91,1.31-8.49,5.5Z"/>
      <path class="cls-7" d="m99.08,116.02c.62-.12,1.24-.22,1.86-.25,1.9-.08,4.08.16,5.99.33,4.5.41,8.75,3,11.17,6.81.41.65.8,1.36,1.45,1.77,1.02.65,2.43.35,3.34-.45s1.37-1.98,1.61-3.16c1.14-5.44-2.1-11.29-7.04-13.84-4.47-2.31-9.51-1.68-14.17-.37-2.21.62-4.69,1.09-6.56,2.5-1.45,1.09-3.85,4.36-2.95,6.34.22.49.81.68,1.34.75,1.35.16,2.65-.17,3.95-.43Z"/>
      <path class="cls-7" d="m222.95,117.76c10.51-3.73,20.98,1.93,23.49,3.33,1.45.81,5.41,4.08,7.05,4.34,2.21.35.85-4.09.47-5.34-.4-1.34-4.48-6.96-5.28-7.99-2.51-3.25-8.16-4.76-12.26-4.87-7.62-.21-13.18,2.66-20.31,6.37-4.78,2.49-10.82,4.09-13.69,9.08-.82,1.42-1.33,3.1-.99,4.71,1.09,5.25,6.7,2.06,9.62.52,4.64-2.46,6.79-8.33,11.9-10.15Z"/>
      <path class="cls-7" d="m253.76,113.15c-1.71,1.22-3.07,5.3-1.91,7.05.79,1.18,2.37,1.6,3.77,1.44s6.96-4.68,8.27-5.22c3.61-1.46,7.49-2.22,11.38-2.24,1.06,0,2.14.05,3.11.48,1.78.79,3.38,2.82,5.2,2.13,3.11-1.18,2.77-6.71.62-8.51-1.68-1.4-3.97-1.79-6.16-1.94-6.68-.47-18.73,2.81-24.3,6.81Z"/>
      <path class="cls-7" d="m290.51,109.49c-1.57.98-2.6,3.09-1.76,4.73.54,1.06,1.72,1.68,2.9,1.87s2.38.03,3.57-.09c3.62-.35,7.29-.24,10.85.48,2.72.55,5.36,1.46,8.01,2.29,1.06.33,2.53,1.05,3.63.94s2.27-1.11,2.61-2.16c.58-1.83-1.76-3.49-3.46-4.37-4.19-2.16-8.75-3.63-13.42-4.33-3.78-.57-9.49-1.52-12.94.63Z"/>
      <path class="cls-7" d="m326.79,107.48c2.79-.75,6.43-.55,8.03-.52,6.8.15,13.58,1.93,19.71,5.22,5.76,3.09,11.31,8.1,12.68,15.08.24,1.23.25,2.76-.68,3.48-1.29,1-2.94-.44-4.02-1.71-6.39-7.49-15.09-12.76-24.33-13.43-3.66-.27-7.37.17-10.96-.67-1.98-.47-4.27-1.96-4.04-4.22.18-1.76,1.69-2.72,3.6-3.24Z"/>
      <path class="cls-7" d="m373.68,120.62c7.9.25,15.89-.55,23.64.98,6.15,1.21,11.95,3.87,17.19,7.3,1.6,1.05,3.59,2.2,5.29,1.34,1.07-.54,1.65-1.78,1.67-2.98s-.46-2.35-1.06-3.39c-3.52-6.09-11.01-7.93-17.38-9.41-5.14-1.19-10.41-1.87-15.69-2.02-4.66-.13-10.21-.77-14.3,1.87-3.23,2.08-4.28,6.15.63,6.31Z"/>
      <path class="cls-7" d="m423.52,119.76c-1.75,1.08-2.36,2.78-.92,4.24s3.72,1.79,5.75,1.45,3.91-1.23,5.85-1.92c9.6-3.4,20.45-1.53,29.64,2.87,1.15.55,2.29,1.15,3.23,2,1.12,1.01,1.91,2.34,2.78,3.57.89,1.26,1.88,2.44,2.95,3.54.69.71,1.45,1.39,2.39,1.71s2.09.18,2.74-.57c.32-.38.48-.86.61-1.34.82-3.17.2-6.69-1.66-9.38-.76-1.11-1.72-2.08-2.73-2.97-6.38-5.66-14.97-8.45-23.49-8.85-5.11-.24-10.24.33-15.23,1.4-2.44.52-8.28,2-11.91,4.24Z"/>
      <path class="cls-7" d="m52.4,91.33c-.3.79-.52,1.75-.02,2.44.38.53,4.16,1.33,6.22.1,1.16-.69,4.3-2.7,5.47-3.37,2.99-1.72,4.16-1.84,6.68-2.14,1.65-.2,3.36-.04,4.92-.6,7.71-2.77-3.43-9.3-7.61-8.79-6.9.84-13.23,5.88-15.66,12.37Z"/>
      <path class="cls-7" d="m176.01,51.06c1.17-1.88,2.12-7.64-1.38-7.88-2.48-.17-6.35,4.05-5.76,7.53.37,1.78,4,5.39,7.14.35Z"/>
      <path class="cls-7" d="m248.39,153.77c-4.22.21-9.9,2.17-11.98,4.68-.54.65-.97,1.51-.85,2.35.15,1.11,1.52,1.68,2.61,1.46s2-.96,2.94-1.58c5.56-3.63,10.91-.91,16.96-1.06,3.38-.08,7.57,1.2,10.79-.21,3.8-1.65,4.27-3.98.58-5.41-4.13-1.6-11.81-.34-16.21-.35-1.61,0-3.23.02-4.85.1Z"/>
      <path class="cls-7" d="m282.42,141.2c1.56-.32,2.98-1.43,3.48-2.94.51-1.53-.23-4.46-2.25-4.53-1.49-.05-5.28,2.78-5.53,4.26-.34,1.99,2.57,3.55,4.29,3.21Z"/>
      <path class="cls-7" d="m366.72,153.5c2.14-.05,4.43,0,6.2,1.2.97.66,1.74,1.78,1.56,2.93-.11.71-.57,1.33-1.13,1.79-2.27,1.88-5.63,1.24-8.49.5-2.57-.67-5.13-1.33-7.7-2-1.56-.4-18.5-2.25-17.46-4.16,1.61-2.96,24.32-.27,27.02-.27Z"/>
      <path class="cls-7" d="m350.89,178.9c1.14,0,3.55,0,4.68.02,2.08.02,4.2-.11,6.19.5s3.87,2.14,4.15,4.2c.05.33.05.68-.08.98-.12.27-.33.5-.55.7-1.68,1.51-4.19,2.03-6.32,1.3-1.25-.43-2.34-1.23-3.57-1.74-.64-.26-1.3-.44-1.97-.61-1.49-.36-12.84-2.35-12.98-3.84-.2-2.07,8.51-1.5,10.45-1.51Z"/>
      <path class="cls-7" d="m391.13,158.77c.71.07,1.44-.08,2.11-.33,5.04-1.91,5.25-9.34-1.08-8.48-4.19.57-6.27,8.3-1.03,8.81Z"/>
      <path class="cls-7" d="m439.28,180.45c3.87.64,8.1.82,8.56,3.61.19,2.41-1.41,3.84-4.34,3.77-2.52-.06-5.02-.57-7.46-1.18-1.76-.44-9.29-2.02-10.11-3.76-1.46-3.1,11.92-2.68,13.35-2.44Z"/>
      <path class="cls-7" d="m460.33,162.77c-1.29-1.19-5.24-4.9-3.99-6.68.68-.96,8.9,1.7,12.83,4.13,1.63,1.01,2.21,1.61,3.5,3.7,1.01,1.63,2.21,3.32,1.87,5.21s-2.16,3.53-4.05,3.25c-1.05-.15-1.95-.83-2.76-1.52-1.68-1.45-3.2-3.08-4.59-4.81-.9-1.12-1.75-2.3-2.81-3.28Z"/>
      <path class="cls-7" d="m283.99,37.08c-3.7,1.24-6.74.61-10.51,2.32.47.19-4.05,1.11-4.09,1.62-.11,1.47,5.16,1.98,6.62,2.19,3.25.45,8.62.37,11.64-.08,3.8-.57,4.86,2.15,8.76,1.3,1.14-.25,2.35-.63,3.05-1.56.91-1.22.6-3.04-.37-4.21s-2.45-1.79-3.92-2.18c-4.04-1.07-7.67-.57-11.17.61Z"/>
      <path class="cls-7" d="m122.38,56.16c1.47.65,3.57,2.68,4.06,4.21.6,1.88,2.15,6.71-.05,6.24-4-.8-7.98-3.93-11.49-6-3.85-2.28-7.62-4.63-11.47-6.91-1.5-.89-3.25-2.89-3.35-4.51,1.4.26,8.58,1.77,9.76,2.15,1.56.5,9.67,3.56,12.53,4.83Z"/>
      <path class="cls-7" d="m303.46,75.87c-4.34.95-8.9-.17-13.19-.88-4.26-.71-8.39-.38-12.73-.18-.82.04-1.65.07-2.45-.12-.25-.06-.54-.19-.58-.44-.05-.28.22-.5.46-.65,6.09-3.82,14.48-4.67,21.51-4.67,3.37,0,7.16.54,9.17,3.24.29.38.53.82.56,1.3.08,1.33-1.45,2.14-2.75,2.42Z"/>
    </g>
  </g>
  <g id="Layer_3" data-name="Layer 3">
    <g>
      <g>
        <g>
          <path class="cls-6" d="m146.52,113.33c-3.15,1.21-6.7-.37-7.91-3.53s.37-6.7,3.53-7.91,6.7.37,7.91,3.53-.37,6.7-3.53,7.91Zm-3.86-10.06c-2.4.92-3.6,3.62-2.68,6.01s3.62,3.6,6.01,2.68,3.6-3.62,2.68-6.01-3.62-3.6-6.01-2.68Z"/>
          <rect class="cls-1" x="141.26" y="115.46" width="15.51" height="8.78" transform="translate(-33.03 61.29) rotate(-20.98)"/>
          <rect class="cls-12" x="138.84" y="111.22" width="17.55" height="9.93" transform="translate(-31.81 60.55) rotate(-20.98)"/>
          <rect class="cls-6" x="149.28" y="109.79" width="4.14" height="9.93" transform="translate(-31.05 61.79) rotate(-20.98)"/>
        </g>
        <g>
          <circle class="cls-4" cx="164.26" cy="159.61" r="40.31" transform="translate(-29.08 36.83) rotate(-11.76)"/>
          <ellipse class="cls-10" cx="157.42" cy="141.76" rx="21.75" ry="15.04" transform="translate(-40.32 65.75) rotate(-20.98)"/>
          <path class="cls-11" d="m167.29,167.5c-13.77,5.28-28.8,1.36-38.34-8.74-.11,4.48.63,9.05,2.33,13.49,6.98,18.21,27.41,27.32,45.62,20.33,18.21-6.98,27.32-27.41,20.33-45.62-1.7-4.44-4.21-8.34-7.28-11.59-.34,13.88-8.9,26.85-22.67,32.13Z"/>
          <path class="cls-1" d="m187.98,146.15c-3.31,9.47-10.6,17.48-20.69,21.35s-20.87,2.79-29.66-2.04c.29,1.31.68,2.62,1.17,3.91,5.39,14.06,21.16,21.09,35.22,15.7,14.06-5.39,21.09-21.16,15.7-35.22-.5-1.29-1.08-2.52-1.74-3.69Z"/>
          <ellipse class="cls-5" cx="154.96" cy="135.36" rx="11.63" ry="6.86" transform="translate(-38.19 64.45) rotate(-20.98)"/>
        </g>
        <g>
          <path class="cls-9" d="m200.83,161.38l-14.07-6.34-6.22,14.12-14.07-6.34-6.22,14.12-14.06-6.34-6.22,14.12-10.46-4.71c.75,1.28,1.56,2.5,2.43,3.67l9.22,4.15,6.22-14.12,14.06,6.34,6.22-14.12,14.07,6.34,6.22-14.12,14.07,6.33,2.54-5.75c-.03-1.62-.17-3.25-.41-4.88l-3.32,7.52Z"/>
          <path class="cls-3" d="m144.39,165.92l14.06,6.34,6.22-14.12,14.07,6.34,6.22-14.12,14.07,6.33,3.82-8.66c-.29-.96-.6-1.91-.96-2.86-.56-1.46-1.2-2.86-1.9-4.21l-3.74,8.47-14.07-6.34-6.22,14.12-14.07-6.34-6.22,14.12-14.06-6.34-6.22,14.12-10.54-4.75c.43,2.02,1.02,4.02,1.79,6.01.13.33.27.66.41.98l11.13,5.02,6.22-14.12Z"/>
          <path class="cls-9" d="m133.34,167.44l6.22-14.12,14.06,6.34,6.22-14.12,14.07,6.34,6.22-14.12,14.07,6.33,3.25-7.36c-.51-.75-1.04-1.48-1.6-2.18l-2.84,6.43-14.07-6.34-6.22,14.12-14.07-6.34-6.22,14.12-14.06-6.34-6.22,14.12-8.18-3.69c.02.88.08,1.76.16,2.65l9.21,4.15Z"/>
        </g>
      </g>
      <path class="cls-8" d="m144.32,101.49c2.46,0,4.79,1.5,5.72,3.93.58,1.53.51,3.14-.07,4.54l1.53-.59,2.53-.97,3.56,9.27-.95.37.71,1.85c2.31-.41,4.62-.6,6.92-.6,12.24,0,23.95,5.61,31.6,15.27h0s0,0,0,0c.56.7,1.09,1.44,1.6,2.18,0,0,0,0,0,0h0c.92,1.34,1.77,2.75,2.54,4.22,0,0,0,0,0,0,.34.65.66,1.31.97,1.99.01.03.03.06.04.09.31.7.61,1.4.89,2.13.2.51.37,1.02.55,1.54.15.44.29.88.42,1.32,0,0,0,0,0,0h0c.81,2.71,1.33,5.44,1.56,8.17,0,.06.01.12.02.18,1.4,17.37-8.65,34.3-25.75,40.86-4.74,1.82-9.62,2.68-14.41,2.68-12.64,0-24.72-5.99-32.34-16.24h0s0,0,0,0c-.43-.58-.85-1.17-1.25-1.77,0-.01-.01-.02-.02-.03-1.6-2.41-2.96-5.03-4.04-7.84-.22-.58-.43-1.17-.62-1.75-.07-.2-.13-.4-.19-.6-.12-.39-.24-.77-.35-1.16-.07-.24-.13-.47-.19-.71-.1-.39-.2-.78-.29-1.17-.41-1.78-.7-3.57-.86-5.35h0c-1.39-15.01,5.81-29.76,18.73-37.84l-.71-1.85-.95.37-3.56-9.27,4.06-1.56c-1.37-.65-2.51-1.8-3.09-3.33-1.21-3.15.37-6.7,3.53-7.91.72-.28,1.46-.41,2.19-.41m-.3,10.76l3.62-1.39h.01c1.23-1.27,1.69-3.17,1.02-4.91-.71-1.85-2.48-2.99-4.35-2.99-.55,0-1.11.1-1.66.31-2.4.92-3.6,3.62-2.68,6.01.67,1.75,2.29,2.85,4.04,2.97m.3-15.76s0,0,0,0c-1.36,0-2.7.25-3.98.74-2.77,1.06-4.96,3.14-6.18,5.86-1.18,2.65-1.29,5.6-.3,8.32-1.17,1.35-1.58,3.29-.9,5.07l2.97,7.76c-11.7,9.41-18.2,24.39-16.8,39.51.19,2.03.51,4.05.97,6.02.1.44.21.87.32,1.31.07.27.14.53.22.8.12.43.25.87.39,1.3l.05.14c.06.18.11.36.17.54.24.72.47,1.37.7,1.96,1.18,3.07,2.7,6.03,4.54,8.81,0,.01.03.05.04.06.43.65.9,1.32,1.39,1.97,8.51,11.43,22.1,18.26,36.35,18.26,5.54,0,10.99-1.01,16.2-3.01,9.32-3.57,17.02-9.94,22.27-18.41,5.07-8.19,7.44-17.96,6.67-27.52v-.16c-.28-3.13-.87-6.22-1.77-9.22-.15-.5-.3-.99-.47-1.48-.2-.61-.41-1.19-.61-1.72-.29-.76-.62-1.54-1-2.39l-.06-.13c-.32-.7-.68-1.45-1.08-2.21-.85-1.63-1.81-3.23-2.85-4.75-.63-.92-1.22-1.72-1.8-2.46-8.51-10.74-21.79-17.16-35.51-17.16-.86,0-1.73.02-2.59.07l-2.97-7.75c-.68-1.79-2.28-2.95-4.06-3.17-1.69-4.17-5.81-6.96-10.32-6.96h0Z"/>
      <path class="cls-7" d="m130.52,146.22c1.08.45,2.32-.06,3.32-.67,2.6-1.56,4.76-3.75,7.07-5.72,10.96-9.33,25.99-13.69,40.24-11.66,1.65.23,3.35.55,4.96.1s3.07-1.93,2.85-3.58c-.16-1.19-1.1-2.11-2.07-2.82-4.16-3.04-9.48-3.94-14.61-4.39-8.15-.71-16.53-.47-24.26,2.23-6.05,2.12-10.83,6.36-14.85,11.43-1.88,2.37-7.63,13-2.66,15.07Z"/>
      <path class="cls-7" d="m138.78,105.32c1.52-2.65,2.91-3.11,3.72-3.29,3.04-.69,4.01.44,5.76.57,4.68.34,5.75-3.98,1.36-5.45-2.75-.92-4.17-1.54-7.18-1.04s-6.12,2.64-7.93,5.6,1.84,7.86,4.26,3.62Z"/>
    </g>
  </g>
</svg>